<mxfile host="Electron" agent="Mozilla/5.0 (Windows NT 10.0; Win64; x64) AppleWebKit/537.36 (KHTML, like Gecko) draw.io/27.0.5 Chrome/134.0.6998.205 Electron/35.3.0 Safari/537.36" version="27.0.5">
  <diagram name="第 1 页" id="9_EoR8GhU_wvUtRFvnnc">
    <mxGraphModel dx="2714" dy="4748" grid="1" gridSize="10" guides="1" tooltips="1" connect="1" arrows="1" fold="1" page="1" pageScale="1" pageWidth="827" pageHeight="1169" math="0" shadow="0">
      <root>
        <mxCell id="0" />
        <mxCell id="1" parent="0" />
        <mxCell id="XDL7qdiM2E-naXSdZjuc-60" value="" style="group" vertex="1" connectable="0" parent="1">
          <mxGeometry x="2220" y="1150" width="620" height="350" as="geometry" />
        </mxCell>
        <mxCell id="XDL7qdiM2E-naXSdZjuc-61" value="" style="rounded=1;whiteSpace=wrap;html=1;fillColor=none;strokeColor=#9673A6;dashed=1;" vertex="1" parent="XDL7qdiM2E-naXSdZjuc-60">
          <mxGeometry y="40" width="620" height="310" as="geometry" />
        </mxCell>
        <mxCell id="XDL7qdiM2E-naXSdZjuc-62" value="" style="rounded=1;whiteSpace=wrap;html=1;fillColor=#9673A6;opacity=80;" vertex="1" parent="XDL7qdiM2E-naXSdZjuc-60">
          <mxGeometry x="30" y="70" width="240" height="250" as="geometry" />
        </mxCell>
        <mxCell id="XDL7qdiM2E-naXSdZjuc-63" value="" style="rounded=1;whiteSpace=wrap;html=1;fillColor=#9673A6;opacity=80;" vertex="1" parent="XDL7qdiM2E-naXSdZjuc-60">
          <mxGeometry x="360" y="70" width="240" height="250" as="geometry" />
        </mxCell>
        <mxCell id="XDL7qdiM2E-naXSdZjuc-64" value="&lt;div style=&quot;color: rgb(216, 222, 233); font-family: Consolas, &amp;quot;Courier New&amp;quot;, monospace; font-size: 14px; line-height: 19px; white-space: pre;&quot;&gt;&lt;span&gt;&amp;nbsp;&lt;span style=&quot;color: rgb(239, 176, 128); font-weight: bold;&quot;&gt;checkUserRolePermission&lt;/span&gt;()&lt;/span&gt;&lt;/div&gt;" style="rounded=0;whiteSpace=wrap;html=1;fillColor=#9673A6;" vertex="1" parent="XDL7qdiM2E-naXSdZjuc-60">
          <mxGeometry x="54" y="120" width="200" height="60" as="geometry" />
        </mxCell>
        <mxCell id="XDL7qdiM2E-naXSdZjuc-65" value="&lt;div style=&quot;color: rgb(216, 222, 233); font-family: Consolas, &amp;quot;Courier New&amp;quot;, monospace; font-size: 14px; line-height: 19px; white-space-collapse: preserve;&quot;&gt;&lt;span style=&quot;color: rgb(135, 195, 255);&quot;&gt;WpsSidMiddleware&lt;/span&gt;&lt;/div&gt;" style="text;html=1;align=center;verticalAlign=middle;resizable=0;points=[];autosize=1;strokeColor=none;fillColor=none;" vertex="1" parent="XDL7qdiM2E-naXSdZjuc-60">
          <mxGeometry x="405" y="80" width="150" height="30" as="geometry" />
        </mxCell>
        <mxCell id="XDL7qdiM2E-naXSdZjuc-66" value="&lt;div style=&quot;color: rgb(216, 222, 233); font-family: Consolas, &amp;quot;Courier New&amp;quot;, monospace; font-size: 14px; line-height: 19px; white-space-collapse: preserve;&quot;&gt;&lt;span style=&quot;color: rgb(135, 195, 255);&quot;&gt;AdminUserRoleMiddleware&lt;/span&gt;&lt;/div&gt;" style="text;html=1;align=center;verticalAlign=middle;resizable=0;points=[];autosize=1;strokeColor=none;fillColor=none;" vertex="1" parent="XDL7qdiM2E-naXSdZjuc-60">
          <mxGeometry x="54" y="80" width="200" height="30" as="geometry" />
        </mxCell>
        <mxCell id="XDL7qdiM2E-naXSdZjuc-67" value="&lt;div style=&quot;color: rgb(216, 222, 233); font-family: Consolas, &amp;quot;Courier New&amp;quot;, monospace; font-size: 14px; line-height: 19px; white-space: pre;&quot;&gt;&lt;span style=&quot;color: rgba(0, 0, 0, 0); font-family: monospace; font-size: 0px; text-align: start; white-space-collapse: collapse;&quot;&gt;%3CmxGraphModel%3E%3Croot%3E%3CmxCell%20id%3D%220%22%2F%3E%3CmxCell%20id%3D%221%22%20parent%3D%220%22%2F%3E%3CmxCell%20id%3D%222%22%20value%3D%22%26lt%3Bdiv%20style%3D%26quot%3Bcolor%3A%20rgb(216%2C%20222%2C%20233)%3B%20font-family%3A%20Consolas%2C%20%26amp%3Bquot%3BCourier%20New%26amp%3Bquot%3B%2C%20monospace%3B%20font-size%3A%2014px%3B%20line-height%3A%2019px%3B%20white-space%3A%20pre%3B%26quot%3B%26gt%3B%26lt%3Bspan%26gt%3B%26amp%3Bnbsp%3B%26lt%3Bspan%20style%3D%26quot%3Bcolor%3A%20rgb(239%2C%20176%2C%20128)%3B%20font-weight%3A%20bold%3B%26quot%3B%26gt%3BcheckUserRolePermission%26lt%3B%2Fspan%26gt%3B()%26lt%3B%2Fspan%26gt%3B%26lt%3B%2Fdiv%26gt%3B%22%20style%3D%22rounded%3D0%3BwhiteSpace%3Dwrap%3Bhtml%3D1%3BfillColor%3D%239673A6%3B%22%20vertex%3D%221%22%20parent%3D%221%22%3E%3CmxGeometry%20x%3D%22214%22%20y%3D%22360%22%20width%3D%22200%22%20height%3D%2260%22%20as%3D%22geometry%22%2F%3E%3C%2FmxCell%3E%3C%2Froot%3E%3C%2FmxGraphModel%3E&lt;/span&gt;&lt;/div&gt;" style="rounded=0;whiteSpace=wrap;html=1;fillColor=#9673A6;" vertex="1" parent="XDL7qdiM2E-naXSdZjuc-60">
          <mxGeometry x="380" y="120" width="200" height="60" as="geometry" />
        </mxCell>
        <mxCell id="XDL7qdiM2E-naXSdZjuc-68" value="&lt;div style=&quot;color: rgb(216, 222, 233); font-family: Consolas, &amp;quot;Courier New&amp;quot;, monospace; font-size: 14px; line-height: 19px; white-space-collapse: preserve;&quot;&gt;&lt;span&gt;&lt;span style=&quot;color: rgb(239, 176, 128); font-weight: bold;&quot;&gt;checkWpsSid&lt;/span&gt;()&lt;/span&gt;&lt;/div&gt;" style="text;html=1;align=center;verticalAlign=middle;resizable=0;points=[];autosize=1;strokeColor=none;fillColor=none;" vertex="1" parent="XDL7qdiM2E-naXSdZjuc-60">
          <mxGeometry x="420" y="135" width="120" height="30" as="geometry" />
        </mxCell>
        <mxCell id="XDL7qdiM2E-naXSdZjuc-69" value="1.获取wpsID&lt;div&gt;&lt;br&gt;&lt;div&gt;2.获取用户信息&lt;/div&gt;&lt;/div&gt;" style="text;html=1;align=center;verticalAlign=middle;resizable=0;points=[];autosize=1;strokeColor=none;fillColor=none;" vertex="1" parent="XDL7qdiM2E-naXSdZjuc-60">
          <mxGeometry x="425" y="200" width="110" height="60" as="geometry" />
        </mxCell>
        <mxCell id="XDL7qdiM2E-naXSdZjuc-70" value="1.判断api是否为后台管理&lt;div&gt;&lt;br&gt;&lt;div&gt;2.获取用户ID、公司ID,判断权限&lt;/div&gt;&lt;/div&gt;" style="text;html=1;align=center;verticalAlign=middle;resizable=0;points=[];autosize=1;strokeColor=none;fillColor=none;" vertex="1" parent="XDL7qdiM2E-naXSdZjuc-60">
          <mxGeometry x="54" y="200" width="190" height="60" as="geometry" />
        </mxCell>
        <mxCell id="XDL7qdiM2E-naXSdZjuc-71" value="ecisaccountsync\src\middleware" style="text;html=1;align=center;verticalAlign=middle;resizable=0;points=[];autosize=1;strokeColor=none;fillColor=none;" vertex="1" parent="XDL7qdiM2E-naXSdZjuc-60">
          <mxGeometry x="210" width="200" height="30" as="geometry" />
        </mxCell>
        <mxCell id="XDL7qdiM2E-naXSdZjuc-184" value="" style="rounded=1;whiteSpace=wrap;html=1;fillColor=#f8cecc;strokeColor=#b85450;opacity=80;" vertex="1" parent="1">
          <mxGeometry x="1965" y="260" width="190" height="150" as="geometry" />
        </mxCell>
        <mxCell id="XDL7qdiM2E-naXSdZjuc-185" value="&lt;div style=&quot;color: rgb(216, 222, 233); font-family: Consolas, &amp;quot;Courier New&amp;quot;, monospace; font-size: 14px; line-height: 19px; white-space: pre;&quot;&gt;&lt;span&gt;&lt;span style=&quot;color: rgb(170, 155, 245);&quot;&gt;ctx&lt;/span&gt;&lt;span style=&quot;color: rgb(214, 214, 221);&quot;&gt;:&lt;/span&gt; &lt;span style=&quot;color: rgb(135, 195, 255);&quot;&gt;WPS4Context&lt;/span&gt;&lt;/span&gt;&lt;/div&gt;" style="rounded=0;whiteSpace=wrap;html=1;fillColor=#f8cecc;strokeColor=#b85450;" vertex="1" parent="1">
          <mxGeometry x="1989" y="300" width="140" height="30" as="geometry" />
        </mxCell>
        <mxCell id="XDL7qdiM2E-naXSdZjuc-186" value="&lt;div style=&quot;color: rgb(216, 222, 233); font-family: Consolas, &amp;quot;Courier New&amp;quot;, monospace; font-size: 14px; line-height: 19px; white-space: pre;&quot;&gt;&lt;div style=&quot;line-height: 19px;&quot;&gt;&lt;span&gt;&lt;span style=&quot;color: rgb(239, 176, 128); font-weight: bold;&quot;&gt;init&lt;/span&gt;()&lt;/span&gt;&lt;/div&gt;&lt;/div&gt;" style="rounded=0;whiteSpace=wrap;html=1;fillColor=#f8cecc;strokeColor=#b85450;" vertex="1" parent="1">
          <mxGeometry x="1989" y="350" width="140" height="30" as="geometry" />
        </mxCell>
        <mxCell id="XDL7qdiM2E-naXSdZjuc-187" value="&lt;span style=&quot;color: rgba(0, 0, 0, 0); font-family: monospace; font-size: 0px; text-align: start;&quot;&gt;%3CmxGraphModel%3E%3Croot%3E%3CmxCell%20id%3D%220%22%2F%3E%3CmxCell%20id%3D%221%22%20parent%3D%220%22%2F%3E%3CmxCell%20id%3D%222%22%20value%3D%22%26lt%3Bdiv%20style%3D%26quot%3Bcolor%3A%20rgb(216%2C%20222%2C%20233)%3B%20background-color%3A%20rgb(26%2C%2026%2C%2026)%3B%20font-family%3A%20Consolas%2C%20%26amp%3Bquot%3BCourier%20New%26amp%3Bquot%3B%2C%20monospace%3B%20font-size%3A%2014px%3B%20line-height%3A%2019px%3B%20white-space%3A%20pre%3B%26quot%3B%26gt%3B%26lt%3Bspan%20style%3D%26quot%3Bcolor%3A%20%23aa9bf5%3B%26quot%3B%26gt%3Bctx%26lt%3B%2Fspan%26gt%3B%26lt%3Bspan%20style%3D%26quot%3Bcolor%3A%20%23d6d6dd%3B%26quot%3B%26gt%3B%3A%26lt%3B%2Fspan%26gt%3B%20%26lt%3Bspan%20style%3D%26quot%3Bcolor%3A%20%2387c3ff%3B%26quot%3B%26gt%3BWPS4Context%26lt%3B%2Fspan%26gt%3B%26lt%3B%2Fdiv%26gt%3B%22%20style%3D%22rounded%3D0%3BwhiteSpace%3Dwrap%3Bhtml%3D1%3BfillColor%3D%23f8cecc%3BstrokeColor%3D%23b85450%3B%22%20vertex%3D%221%22%20parent%3D%221%22%3E%3CmxGeometry%20x%3D%22280%22%20y%3D%22290%22%20width%3D%22120%22%20height%3D%2230%22%20as%3D%22geometry%22%2F%3E%3C%2FmxCell%3E%3C%2Froot%3E%3C%2FmxGraphModel%3E&lt;/span&gt;" style="text;html=1;align=center;verticalAlign=middle;resizable=0;points=[];autosize=1;strokeColor=none;fillColor=none;" vertex="1" parent="1">
          <mxGeometry x="2035" y="360" width="20" height="30" as="geometry" />
        </mxCell>
        <mxCell id="XDL7qdiM2E-naXSdZjuc-188" value="&lt;div style=&quot;font-family: Consolas, &amp;quot;Courier New&amp;quot;, monospace; font-weight: normal; font-size: 14px; line-height: 19px; white-space: pre;&quot;&gt;&lt;div style=&quot;&quot;&gt;&lt;span style=&quot;font-style: italic;&quot;&gt;&lt;font style=&quot;color: rgb(255, 0, 0);&quot;&gt;WPS4服务单例&lt;/font&gt;&lt;/span&gt;&lt;/div&gt;&lt;/div&gt;" style="text;whiteSpace=wrap;html=1;" vertex="1" parent="1">
          <mxGeometry x="2015" y="190" width="120" height="40" as="geometry" />
        </mxCell>
        <mxCell id="XDL7qdiM2E-naXSdZjuc-189" value="ecisaccountsync\src\common\cams.ts" style="text;html=1;align=center;verticalAlign=middle;resizable=0;points=[];autosize=1;strokeColor=none;fillColor=none;" vertex="1" parent="1">
          <mxGeometry x="1950" y="228" width="220" height="30" as="geometry" />
        </mxCell>
        <mxCell id="XDL7qdiM2E-naXSdZjuc-190" value="" style="rounded=1;whiteSpace=wrap;html=1;fillColor=#f8cecc;strokeColor=#b85450;opacity=80;" vertex="1" parent="1">
          <mxGeometry x="2345" y="260" width="390" height="310" as="geometry" />
        </mxCell>
        <mxCell id="XDL7qdiM2E-naXSdZjuc-191" value="&lt;div style=&quot;color: rgb(216, 222, 233); font-family: Consolas, &amp;quot;Courier New&amp;quot;, monospace; font-size: 14px; line-height: 19px; white-space: pre;&quot;&gt;&lt;div style=&quot;line-height: 19px;&quot;&gt;&lt;span&gt;&lt;span style=&quot;color: rgb(170, 155, 245);&quot;&gt;host&lt;/span&gt;&lt;span style=&quot;color: rgb(214, 214, 221);&quot;&gt;:&lt;/span&gt; &lt;span style=&quot;color: rgb(130, 210, 206);&quot;&gt;string&lt;/span&gt; &lt;/span&gt;&lt;/div&gt;&lt;/div&gt;" style="rounded=0;whiteSpace=wrap;html=1;fillColor=#f8cecc;strokeColor=#b85450;" vertex="1" parent="1">
          <mxGeometry x="2375" y="310" width="159" height="30" as="geometry" />
        </mxCell>
        <mxCell id="XDL7qdiM2E-naXSdZjuc-192" value="&lt;div style=&quot;color: rgb(216, 222, 233); font-family: Consolas, &amp;quot;Courier New&amp;quot;, monospace; font-size: 14px; line-height: 19px; white-space: pre;&quot;&gt;&lt;div style=&quot;line-height: 19px;&quot;&gt;&lt;div style=&quot;line-height: 19px;&quot;&gt;&lt;span&gt;&lt;span style=&quot;color: rgb(170, 155, 245);&quot;&gt;appKey&lt;/span&gt;&lt;span style=&quot;color: rgb(214, 214, 221);&quot;&gt;:&lt;/span&gt; &lt;span style=&quot;color: rgb(130, 210, 206);&quot;&gt;string&lt;/span&gt;&lt;/span&gt;&lt;/div&gt;&lt;/div&gt;&lt;/div&gt;" style="rounded=0;whiteSpace=wrap;html=1;fillColor=#f8cecc;strokeColor=#b85450;" vertex="1" parent="1">
          <mxGeometry x="2375" y="360" width="140" height="30" as="geometry" />
        </mxCell>
        <mxCell id="XDL7qdiM2E-naXSdZjuc-193" value="&lt;span style=&quot;color: rgba(0, 0, 0, 0); font-family: monospace; font-size: 0px; text-align: start;&quot;&gt;%3CmxGraphModel%3E%3Croot%3E%3CmxCell%20id%3D%220%22%2F%3E%3CmxCell%20id%3D%221%22%20parent%3D%220%22%2F%3E%3CmxCell%20id%3D%222%22%20value%3D%22%26lt%3Bdiv%20style%3D%26quot%3Bcolor%3A%20rgb(216%2C%20222%2C%20233)%3B%20background-color%3A%20rgb(26%2C%2026%2C%2026)%3B%20font-family%3A%20Consolas%2C%20%26amp%3Bquot%3BCourier%20New%26amp%3Bquot%3B%2C%20monospace%3B%20font-size%3A%2014px%3B%20line-height%3A%2019px%3B%20white-space%3A%20pre%3B%26quot%3B%26gt%3B%26lt%3Bspan%20style%3D%26quot%3Bcolor%3A%20%23aa9bf5%3B%26quot%3B%26gt%3Bctx%26lt%3B%2Fspan%26gt%3B%26lt%3Bspan%20style%3D%26quot%3Bcolor%3A%20%23d6d6dd%3B%26quot%3B%26gt%3B%3A%26lt%3B%2Fspan%26gt%3B%20%26lt%3Bspan%20style%3D%26quot%3Bcolor%3A%20%2387c3ff%3B%26quot%3B%26gt%3BWPS4Context%26lt%3B%2Fspan%26gt%3B%26lt%3B%2Fdiv%26gt%3B%22%20style%3D%22rounded%3D0%3BwhiteSpace%3Dwrap%3Bhtml%3D1%3BfillColor%3D%23f8cecc%3BstrokeColor%3D%23b85450%3B%22%20vertex%3D%221%22%20parent%3D%221%22%3E%3CmxGeometry%20x%3D%22280%22%20y%3D%22290%22%20width%3D%22120%22%20height%3D%2230%22%20as%3D%22geometry%22%2F%3E%3C%2FmxCell%3E%3C%2Froot%3E%3C%2FmxGraphModel%3E&lt;/span&gt;" style="text;html=1;align=center;verticalAlign=middle;resizable=0;points=[];autosize=1;strokeColor=none;fillColor=none;" vertex="1" parent="1">
          <mxGeometry x="2440" y="370" width="20" height="30" as="geometry" />
        </mxCell>
        <mxCell id="XDL7qdiM2E-naXSdZjuc-194" value="&lt;div style=&quot;font-family: Consolas, &amp;quot;Courier New&amp;quot;, monospace; font-weight: normal; font-size: 14px; line-height: 19px; white-space: pre;&quot;&gt;&lt;div style=&quot;&quot;&gt;&lt;div style=&quot;line-height: 19px;&quot;&gt;&lt;span style=&quot;font-style: italic;&quot;&gt;&lt;font style=&quot;color: rgb(255, 0, 0);&quot;&gt;WPS4服务上下文类&lt;/font&gt;&lt;/span&gt;&lt;/div&gt;&lt;/div&gt;&lt;/div&gt;" style="text;whiteSpace=wrap;html=1;" vertex="1" parent="1">
          <mxGeometry x="2480" y="190" width="120" height="40" as="geometry" />
        </mxCell>
        <mxCell id="XDL7qdiM2E-naXSdZjuc-195" value="ecisaccountsync\src\sdk\common\wps4\WPS4Context.ts" style="text;html=1;align=center;verticalAlign=middle;resizable=0;points=[];autosize=1;strokeColor=none;fillColor=none;" vertex="1" parent="1">
          <mxGeometry x="2380" y="230" width="320" height="30" as="geometry" />
        </mxCell>
        <mxCell id="XDL7qdiM2E-naXSdZjuc-196" value="&lt;div style=&quot;color: rgb(216, 222, 233); font-family: Consolas, &amp;quot;Courier New&amp;quot;, monospace; font-size: 14px; line-height: 19px; white-space: pre;&quot;&gt;&lt;div style=&quot;line-height: 19px;&quot;&gt;&lt;span&gt;&lt;span style=&quot;color: rgb(170, 155, 245);&quot;&gt;isMultiTenant&lt;/span&gt;&lt;span style=&quot;color: rgb(214, 214, 221);&quot;&gt;:&lt;/span&gt; &lt;span style=&quot;color: rgb(130, 210, 206);&quot;&gt;boolean&lt;/span&gt; &lt;/span&gt;&lt;/div&gt;&lt;/div&gt;" style="rounded=0;whiteSpace=wrap;html=1;fillColor=#f8cecc;strokeColor=#b85450;" vertex="1" parent="1">
          <mxGeometry x="2515" y="360" width="190" height="30" as="geometry" />
        </mxCell>
        <mxCell id="XDL7qdiM2E-naXSdZjuc-197" value="&lt;div style=&quot;color: rgb(216, 222, 233); font-family: Consolas, &amp;quot;Courier New&amp;quot;, monospace; font-size: 14px; line-height: 19px; white-space: pre;&quot;&gt;&lt;div style=&quot;line-height: 19px;&quot;&gt;&lt;span&gt;&lt;span style=&quot;color: rgb(170, 155, 245);&quot;&gt;appId&lt;/span&gt;&lt;span style=&quot;color: rgb(214, 214, 221);&quot;&gt;:&lt;/span&gt; &lt;span style=&quot;color: rgb(130, 210, 206);&quot;&gt;string&lt;/span&gt;&lt;/span&gt;&lt;/div&gt;&lt;/div&gt;" style="rounded=0;whiteSpace=wrap;html=1;fillColor=#f8cecc;strokeColor=#b85450;" vertex="1" parent="1">
          <mxGeometry x="2555" y="310" width="150" height="30" as="geometry" />
        </mxCell>
        <mxCell id="XDL7qdiM2E-naXSdZjuc-198" value="&lt;div style=&quot;color: rgb(216, 222, 233); font-family: Consolas, &amp;quot;Courier New&amp;quot;, monospace; font-size: 14px; line-height: 19px; white-space: pre;&quot;&gt;&lt;div style=&quot;line-height: 19px;&quot;&gt;&lt;div style=&quot;line-height: 19px;&quot;&gt;&lt;span&gt;&lt;span style=&quot;color: rgb(170, 155, 245);&quot;&gt;defaultHeaders&lt;/span&gt;&lt;span style=&quot;color: rgb(214, 214, 221);&quot;&gt;:&lt;/span&gt; { &lt;span style=&quot;color: rgb(214, 214, 221);&quot;&gt;[&lt;/span&gt;&lt;span style=&quot;color: rgb(214, 214, 221); font-style: italic;&quot;&gt;key&lt;/span&gt;&lt;span style=&quot;color: rgb(214, 214, 221);&quot;&gt;:&lt;/span&gt; &lt;span style=&quot;color: rgb(130, 210, 206);&quot;&gt;string&lt;/span&gt;&lt;span style=&quot;color: rgb(214, 214, 221);&quot;&gt;]:&lt;/span&gt; &lt;span style=&quot;color: rgb(130, 210, 206);&quot;&gt;string&lt;/span&gt; }&lt;/span&gt;&lt;/div&gt;&lt;/div&gt;&lt;/div&gt;" style="rounded=0;whiteSpace=wrap;html=1;fillColor=#f8cecc;strokeColor=#b85450;" vertex="1" parent="1">
          <mxGeometry x="2375" y="410" width="330" height="30" as="geometry" />
        </mxCell>
        <mxCell id="XDL7qdiM2E-naXSdZjuc-199" value="&lt;div style=&quot;color: rgb(216, 222, 233); font-family: Consolas, &amp;quot;Courier New&amp;quot;, monospace; font-size: 14px; line-height: 19px; white-space: pre;&quot;&gt;&lt;div style=&quot;line-height: 19px;&quot;&gt;&lt;div style=&quot;line-height: 19px;&quot;&gt;&lt;div style=&quot;line-height: 19px;&quot;&gt;&lt;span style=&quot;color: rgb(130, 210, 206);&quot;&gt;constructor&lt;/span&gt;&lt;/div&gt;&lt;/div&gt;&lt;/div&gt;&lt;/div&gt;" style="rounded=0;whiteSpace=wrap;html=1;fillColor=#f8cecc;strokeColor=#b85450;" vertex="1" parent="1">
          <mxGeometry x="2375" y="460" width="333" height="30" as="geometry" />
        </mxCell>
        <mxCell id="XDL7qdiM2E-naXSdZjuc-200" value="&lt;div style=&quot;color: rgb(216, 222, 233); font-family: Consolas, &amp;quot;Courier New&amp;quot;, monospace; font-size: 14px; line-height: 19px; white-space: pre;&quot;&gt;&lt;div style=&quot;line-height: 19px;&quot;&gt;&lt;div style=&quot;line-height: 19px;&quot;&gt;&lt;div style=&quot;line-height: 19px;&quot;&gt;&lt;span style=&quot;color: rgb(239, 176, 128); font-weight: bold;&quot;&gt;sha1&lt;/span&gt;&lt;/div&gt;&lt;/div&gt;&lt;/div&gt;&lt;/div&gt;" style="rounded=0;whiteSpace=wrap;html=1;fillColor=#f8cecc;strokeColor=#b85450;" vertex="1" parent="1">
          <mxGeometry x="2435" y="510" width="70" height="30" as="geometry" />
        </mxCell>
        <mxCell id="XDL7qdiM2E-naXSdZjuc-201" value="&lt;div style=&quot;color: rgb(216, 222, 233); font-family: Consolas, &amp;quot;Courier New&amp;quot;, monospace; font-size: 14px; line-height: 19px; white-space: pre;&quot;&gt;&lt;div style=&quot;line-height: 19px;&quot;&gt;&lt;div style=&quot;line-height: 19px;&quot;&gt;&lt;span style=&quot;color: rgb(239, 176, 128); font-weight: bold;&quot;&gt;abs&lt;/span&gt;&lt;/div&gt;&lt;/div&gt;&lt;/div&gt;" style="rounded=0;whiteSpace=wrap;html=1;fillColor=#f8cecc;strokeColor=#b85450;" vertex="1" parent="1">
          <mxGeometry x="2375" y="510" width="60" height="30" as="geometry" />
        </mxCell>
        <mxCell id="XDL7qdiM2E-naXSdZjuc-202" value="&lt;div style=&quot;color: rgb(216, 222, 233); font-family: Consolas, &amp;quot;Courier New&amp;quot;, monospace; font-size: 14px; line-height: 19px; white-space: pre;&quot;&gt;&lt;div style=&quot;line-height: 19px;&quot;&gt;&lt;div style=&quot;line-height: 19px;&quot;&gt;&lt;div style=&quot;line-height: 19px;&quot;&gt;&lt;span style=&quot;color: rgb(239, 176, 128); font-weight: bold;&quot;&gt;sha256&lt;/span&gt;&lt;/div&gt;&lt;/div&gt;&lt;/div&gt;&lt;/div&gt;" style="rounded=0;whiteSpace=wrap;html=1;fillColor=#f8cecc;strokeColor=#b85450;" vertex="1" parent="1">
          <mxGeometry x="2505" y="510" width="70" height="30" as="geometry" />
        </mxCell>
        <mxCell id="XDL7qdiM2E-naXSdZjuc-203" value="&lt;div style=&quot;color: rgb(216, 222, 233); font-family: Consolas, &amp;quot;Courier New&amp;quot;, monospace; font-size: 14px; line-height: 19px; white-space: pre;&quot;&gt;&lt;div style=&quot;line-height: 19px;&quot;&gt;&lt;div style=&quot;line-height: 19px;&quot;&gt;&lt;div style=&quot;line-height: 19px;&quot;&gt;&lt;span style=&quot;color: rgb(239, 176, 128); font-weight: bold;&quot;&gt;hmacSha256&lt;/span&gt;&lt;/div&gt;&lt;/div&gt;&lt;/div&gt;&lt;/div&gt;" style="rounded=0;whiteSpace=wrap;html=1;fillColor=#f8cecc;strokeColor=#b85450;" vertex="1" parent="1">
          <mxGeometry x="2568" y="510" width="97" height="30" as="geometry" />
        </mxCell>
        <mxCell id="XDL7qdiM2E-naXSdZjuc-204" value="&lt;div style=&quot;color: rgb(216, 222, 233); font-family: Consolas, &amp;quot;Courier New&amp;quot;, monospace; font-size: 14px; line-height: 19px; white-space: pre;&quot;&gt;&lt;div style=&quot;line-height: 19px;&quot;&gt;&lt;div style=&quot;line-height: 19px;&quot;&gt;&lt;div style=&quot;line-height: 19px;&quot;&gt;&lt;span style=&quot;color: rgb(239, 176, 128); font-weight: bold;&quot;&gt;md5&lt;/span&gt;&lt;/div&gt;&lt;/div&gt;&lt;/div&gt;&lt;/div&gt;" style="rounded=0;whiteSpace=wrap;html=1;fillColor=#f8cecc;strokeColor=#b85450;" vertex="1" parent="1">
          <mxGeometry x="2665" y="510" width="43" height="30" as="geometry" />
        </mxCell>
        <mxCell id="XDL7qdiM2E-naXSdZjuc-205" value="" style="endArrow=none;dashed=1;html=1;rounded=0;exitX=1;exitY=0.5;exitDx=0;exitDy=0;entryX=0.002;entryY=0.177;entryDx=0;entryDy=0;entryPerimeter=0;" edge="1" parent="1" source="XDL7qdiM2E-naXSdZjuc-185" target="XDL7qdiM2E-naXSdZjuc-190">
          <mxGeometry width="50" height="50" relative="1" as="geometry">
            <mxPoint x="2215" y="370" as="sourcePoint" />
            <mxPoint x="2355" y="320" as="targetPoint" />
          </mxGeometry>
        </mxCell>
        <mxCell id="XDL7qdiM2E-naXSdZjuc-206" value="" style="rounded=1;whiteSpace=wrap;html=1;fillColor=#f8cecc;strokeColor=#b85450;opacity=80;" vertex="1" parent="1">
          <mxGeometry x="3020" y="275" width="190" height="255" as="geometry" />
        </mxCell>
        <mxCell id="XDL7qdiM2E-naXSdZjuc-207" value="&lt;div style=&quot;color: rgb(216, 222, 233); font-family: Consolas, &amp;quot;Courier New&amp;quot;, monospace; font-size: 14px; line-height: 19px; white-space: pre;&quot;&gt;&lt;span&gt;&lt;span style=&quot;color: rgb(170, 155, 245);&quot;&gt;ctx&lt;/span&gt;&lt;span style=&quot;color: rgb(214, 214, 221);&quot;&gt;:&lt;/span&gt; &lt;span style=&quot;color: rgb(135, 195, 255);&quot;&gt;WPS4Context&lt;/span&gt;&lt;/span&gt;&lt;/div&gt;" style="rounded=0;whiteSpace=wrap;html=1;fillColor=#f8cecc;strokeColor=#b85450;" vertex="1" parent="1">
          <mxGeometry x="3044" y="315" width="140" height="30" as="geometry" />
        </mxCell>
        <mxCell id="XDL7qdiM2E-naXSdZjuc-208" value="&lt;div style=&quot;color: rgb(216, 222, 233); font-family: Consolas, &amp;quot;Courier New&amp;quot;, monospace; font-size: 14px; line-height: 19px; white-space: pre;&quot;&gt;&lt;div style=&quot;line-height: 19px;&quot;&gt;&lt;span&gt;&lt;span style=&quot;color: rgb(239, 176, 128); font-weight: bold;&quot;&gt;init&lt;/span&gt;()&lt;/span&gt;&lt;/div&gt;&lt;/div&gt;" style="rounded=0;whiteSpace=wrap;html=1;fillColor=#f8cecc;strokeColor=#b85450;" vertex="1" parent="1">
          <mxGeometry x="3044" y="365" width="140" height="30" as="geometry" />
        </mxCell>
        <mxCell id="XDL7qdiM2E-naXSdZjuc-209" value="&lt;span style=&quot;color: rgba(0, 0, 0, 0); font-family: monospace; font-size: 0px; text-align: start;&quot;&gt;%3CmxGraphModel%3E%3Croot%3E%3CmxCell%20id%3D%220%22%2F%3E%3CmxCell%20id%3D%221%22%20parent%3D%220%22%2F%3E%3CmxCell%20id%3D%222%22%20value%3D%22%26lt%3Bdiv%20style%3D%26quot%3Bcolor%3A%20rgb(216%2C%20222%2C%20233)%3B%20background-color%3A%20rgb(26%2C%2026%2C%2026)%3B%20font-family%3A%20Consolas%2C%20%26amp%3Bquot%3BCourier%20New%26amp%3Bquot%3B%2C%20monospace%3B%20font-size%3A%2014px%3B%20line-height%3A%2019px%3B%20white-space%3A%20pre%3B%26quot%3B%26gt%3B%26lt%3Bspan%20style%3D%26quot%3Bcolor%3A%20%23aa9bf5%3B%26quot%3B%26gt%3Bctx%26lt%3B%2Fspan%26gt%3B%26lt%3Bspan%20style%3D%26quot%3Bcolor%3A%20%23d6d6dd%3B%26quot%3B%26gt%3B%3A%26lt%3B%2Fspan%26gt%3B%20%26lt%3Bspan%20style%3D%26quot%3Bcolor%3A%20%2387c3ff%3B%26quot%3B%26gt%3BWPS4Context%26lt%3B%2Fspan%26gt%3B%26lt%3B%2Fdiv%26gt%3B%22%20style%3D%22rounded%3D0%3BwhiteSpace%3Dwrap%3Bhtml%3D1%3BfillColor%3D%23f8cecc%3BstrokeColor%3D%23b85450%3B%22%20vertex%3D%221%22%20parent%3D%221%22%3E%3CmxGeometry%20x%3D%22280%22%20y%3D%22290%22%20width%3D%22120%22%20height%3D%2230%22%20as%3D%22geometry%22%2F%3E%3C%2FmxCell%3E%3C%2Froot%3E%3C%2FmxGraphModel%3E&lt;/span&gt;" style="text;html=1;align=center;verticalAlign=middle;resizable=0;points=[];autosize=1;strokeColor=none;fillColor=none;" vertex="1" parent="1">
          <mxGeometry x="3090" y="375" width="20" height="30" as="geometry" />
        </mxCell>
        <mxCell id="XDL7qdiM2E-naXSdZjuc-210" value="&lt;div style=&quot;font-family: Consolas, &amp;quot;Courier New&amp;quot;, monospace; font-weight: normal; font-size: 14px; line-height: 19px; white-space: pre;&quot;&gt;&lt;div style=&quot;&quot;&gt;&lt;span style=&quot;font-style: italic;&quot;&gt;&lt;font style=&quot;color: rgb(255, 0, 0);&quot;&gt;WPS4服务客户端单例&lt;/font&gt;&lt;/span&gt;&lt;/div&gt;&lt;/div&gt;" style="text;whiteSpace=wrap;html=1;" vertex="1" parent="1">
          <mxGeometry x="3044" y="203" width="120" height="40" as="geometry" />
        </mxCell>
        <mxCell id="XDL7qdiM2E-naXSdZjuc-211" value="ecisaccountsync\src\common\docmini.ts" style="text;html=1;align=center;verticalAlign=middle;resizable=0;points=[];autosize=1;strokeColor=none;fillColor=none;" vertex="1" parent="1">
          <mxGeometry x="2995" y="243" width="240" height="30" as="geometry" />
        </mxCell>
        <mxCell id="XDL7qdiM2E-naXSdZjuc-212" value="&lt;div style=&quot;color: rgb(216, 222, 233); font-family: Consolas, &amp;quot;Courier New&amp;quot;, monospace; font-size: 14px; line-height: 19px; white-space: pre;&quot;&gt;&lt;div style=&quot;line-height: 19px;&quot;&gt;&lt;div style=&quot;line-height: 19px;&quot;&gt;&lt;span style=&quot;color: rgb(239, 176, 128); font-weight: bold;&quot;&gt;getCurrentUser&lt;/span&gt;&lt;/div&gt;&lt;/div&gt;&lt;/div&gt;" style="rounded=0;whiteSpace=wrap;html=1;fillColor=#f8cecc;strokeColor=#b85450;" vertex="1" parent="1">
          <mxGeometry x="3045" y="405" width="140" height="30" as="geometry" />
        </mxCell>
        <mxCell id="XDL7qdiM2E-naXSdZjuc-213" value="&lt;div style=&quot;color: rgb(216, 222, 233); font-family: Consolas, &amp;quot;Courier New&amp;quot;, monospace; font-size: 14px; line-height: 19px; white-space: pre;&quot;&gt;&lt;div style=&quot;line-height: 19px;&quot;&gt;&lt;div style=&quot;line-height: 19px;&quot;&gt;&lt;span style=&quot;color: rgb(239, 176, 128); font-weight: bold; background-color: light-dark(#ffffff, var(--ge-dark-color, #121212));&quot;&gt;checkCurren&lt;/span&gt;&lt;/div&gt;&lt;div style=&quot;line-height: 19px;&quot;&gt;&lt;span style=&quot;color: rgb(239, 176, 128); font-weight: bold; background-color: light-dark(#ffffff, var(--ge-dark-color, #121212));&quot;&gt;tUserRolePermission&lt;/span&gt;&lt;/div&gt;&lt;/div&gt;&lt;/div&gt;" style="rounded=0;whiteSpace=wrap;html=1;fillColor=#f8cecc;strokeColor=#b85450;" vertex="1" parent="1">
          <mxGeometry x="3045" y="440" width="140" height="40" as="geometry" />
        </mxCell>
        <mxCell id="XDL7qdiM2E-naXSdZjuc-214" value="&lt;div style=&quot;color: rgb(216, 222, 233); font-family: Consolas, &amp;quot;Courier New&amp;quot;, monospace; font-size: 14px; line-height: 19px; white-space: pre;&quot;&gt;&lt;div style=&quot;line-height: 19px;&quot;&gt;&lt;div style=&quot;line-height: 19px;&quot;&gt;&lt;span style=&quot;color: rgb(239, 176, 128); font-weight: bold;&quot;&gt;auditLogsWrite&lt;/span&gt;&lt;/div&gt;&lt;/div&gt;&lt;/div&gt;" style="rounded=0;whiteSpace=wrap;html=1;fillColor=#f8cecc;strokeColor=#b85450;" vertex="1" parent="1">
          <mxGeometry x="3045" y="490" width="140" height="30" as="geometry" />
        </mxCell>
        <mxCell id="XDL7qdiM2E-naXSdZjuc-215" value="" style="endArrow=none;dashed=1;html=1;rounded=0;entryX=0;entryY=0.5;entryDx=0;entryDy=0;exitX=1.002;exitY=0.225;exitDx=0;exitDy=0;exitPerimeter=0;" edge="1" parent="1" source="XDL7qdiM2E-naXSdZjuc-190" target="XDL7qdiM2E-naXSdZjuc-207">
          <mxGeometry width="50" height="50" relative="1" as="geometry">
            <mxPoint x="2885" y="380" as="sourcePoint" />
            <mxPoint x="2935" y="330" as="targetPoint" />
          </mxGeometry>
        </mxCell>
        <mxCell id="XDL7qdiM2E-naXSdZjuc-226" value="&lt;span style=&quot;color: rgba(0, 0, 0, 0); font-family: monospace; font-size: 0px; text-align: start;&quot;&gt;%3CmxGraphModel%3E%3Croot%3E%3CmxCell%20id%3D%220%22%2F%3E%3CmxCell%20id%3D%221%22%20parent%3D%220%22%2F%3E%3CmxCell%20id%3D%222%22%20value%3D%22%26lt%3Bdiv%20style%3D%26quot%3Bcolor%3A%20rgb(216%2C%20222%2C%20233)%3B%20background-color%3A%20rgb(26%2C%2026%2C%2026)%3B%20font-family%3A%20Consolas%2C%20%26amp%3Bquot%3BCourier%20New%26amp%3Bquot%3B%2C%20monospace%3B%20font-size%3A%2014px%3B%20line-height%3A%2019px%3B%20white-space%3A%20pre%3B%26quot%3B%26gt%3B%26lt%3Bspan%20style%3D%26quot%3Bcolor%3A%20%23aa9bf5%3B%26quot%3B%26gt%3Bctx%26lt%3B%2Fspan%26gt%3B%26lt%3Bspan%20style%3D%26quot%3Bcolor%3A%20%23d6d6dd%3B%26quot%3B%26gt%3B%3A%26lt%3B%2Fspan%26gt%3B%20%26lt%3Bspan%20style%3D%26quot%3Bcolor%3A%20%2387c3ff%3B%26quot%3B%26gt%3BWPS4Context%26lt%3B%2Fspan%26gt%3B%26lt%3B%2Fdiv%26gt%3B%22%20style%3D%22rounded%3D0%3BwhiteSpace%3Dwrap%3Bhtml%3D1%3BfillColor%3D%23f8cecc%3BstrokeColor%3D%23b85450%3B%22%20vertex%3D%221%22%20parent%3D%221%22%3E%3CmxGeometry%20x%3D%22280%22%20y%3D%22290%22%20width%3D%22120%22%20height%3D%2230%22%20as%3D%22geometry%22%2F%3E%3C%2FmxCell%3E%3C%2Froot%3E%3C%2FmxGraphModel%3E&lt;/span&gt;" style="text;html=1;align=center;verticalAlign=middle;resizable=0;points=[];autosize=1;strokeColor=none;fillColor=none;" vertex="1" parent="1">
          <mxGeometry x="2699" y="830" width="20" height="30" as="geometry" />
        </mxCell>
        <mxCell id="XDL7qdiM2E-naXSdZjuc-241" value="" style="group" vertex="1" connectable="0" parent="1">
          <mxGeometry x="2270" y="648" width="260" height="152" as="geometry" />
        </mxCell>
        <mxCell id="XDL7qdiM2E-naXSdZjuc-216" value="定义了所以配置的一个接口和const变量" style="rounded=1;whiteSpace=wrap;html=1;fillColor=#f8cecc;strokeColor=#b85450;opacity=80;" vertex="1" parent="XDL7qdiM2E-naXSdZjuc-241">
          <mxGeometry y="82" width="260" height="70" as="geometry" />
        </mxCell>
        <mxCell id="XDL7qdiM2E-naXSdZjuc-218" value="&lt;div style=&quot;font-family: Consolas, &amp;quot;Courier New&amp;quot;, monospace; font-weight: normal; font-size: 14px; line-height: 19px; white-space: pre;&quot;&gt;&lt;div style=&quot;&quot;&gt;&lt;div style=&quot;line-height: 19px;&quot;&gt;&lt;span style=&quot;font-style: italic;&quot;&gt;&lt;font style=&quot;color: rgb(255, 0, 0);&quot;&gt;全局配置变量接口&lt;/font&gt;&lt;/span&gt;&lt;/div&gt;&lt;/div&gt;&lt;/div&gt;" style="text;whiteSpace=wrap;html=1;" vertex="1" parent="XDL7qdiM2E-naXSdZjuc-241">
          <mxGeometry x="64" width="120" height="40" as="geometry" />
        </mxCell>
        <mxCell id="XDL7qdiM2E-naXSdZjuc-219" value="ecisaccountsync\src\common\config.ts" style="text;html=1;align=center;verticalAlign=middle;resizable=0;points=[];autosize=1;strokeColor=none;fillColor=none;" vertex="1" parent="XDL7qdiM2E-naXSdZjuc-241">
          <mxGeometry x="10" y="40" width="230" height="30" as="geometry" />
        </mxCell>
        <mxCell id="XDL7qdiM2E-naXSdZjuc-242" value="" style="group" vertex="1" connectable="0" parent="1">
          <mxGeometry x="1950" y="630" width="260" height="172" as="geometry" />
        </mxCell>
        <mxCell id="XDL7qdiM2E-naXSdZjuc-217" value="&lt;span style=&quot;color: rgba(0, 0, 0, 0); font-family: monospace; font-size: 0px; text-align: start;&quot;&gt;%3CmxGraphModel%3E%3Croot%3E%3CmxCell%20id%3D%220%22%2F%3E%3CmxCell%20id%3D%221%22%20parent%3D%220%22%2F%3E%3CmxCell%20id%3D%222%22%20value%3D%22%26lt%3Bdiv%20style%3D%26quot%3Bcolor%3A%20rgb(216%2C%20222%2C%20233)%3B%20background-color%3A%20rgb(26%2C%2026%2C%2026)%3B%20font-family%3A%20Consolas%2C%20%26amp%3Bquot%3BCourier%20New%26amp%3Bquot%3B%2C%20monospace%3B%20font-size%3A%2014px%3B%20line-height%3A%2019px%3B%20white-space%3A%20pre%3B%26quot%3B%26gt%3B%26lt%3Bspan%20style%3D%26quot%3Bcolor%3A%20%23aa9bf5%3B%26quot%3B%26gt%3Bctx%26lt%3B%2Fspan%26gt%3B%26lt%3Bspan%20style%3D%26quot%3Bcolor%3A%20%23d6d6dd%3B%26quot%3B%26gt%3B%3A%26lt%3B%2Fspan%26gt%3B%20%26lt%3Bspan%20style%3D%26quot%3Bcolor%3A%20%2387c3ff%3B%26quot%3B%26gt%3BWPS4Context%26lt%3B%2Fspan%26gt%3B%26lt%3B%2Fdiv%26gt%3B%22%20style%3D%22rounded%3D0%3BwhiteSpace%3Dwrap%3Bhtml%3D1%3BfillColor%3D%23f8cecc%3BstrokeColor%3D%23b85450%3B%22%20vertex%3D%221%22%20parent%3D%221%22%3E%3CmxGeometry%20x%3D%22280%22%20y%3D%22290%22%20width%3D%22120%22%20height%3D%2230%22%20as%3D%22geometry%22%2F%3E%3C%2FmxCell%3E%3C%2Froot%3E%3C%2FmxGraphModel%3E&lt;/span&gt;" style="text;html=1;align=center;verticalAlign=middle;resizable=0;points=[];autosize=1;strokeColor=none;fillColor=none;" vertex="1" parent="XDL7qdiM2E-naXSdZjuc-242">
          <mxGeometry x="90" width="20" height="30" as="geometry" />
        </mxCell>
        <mxCell id="XDL7qdiM2E-naXSdZjuc-223" value="定义了各种全局的接口和类型" style="rounded=1;whiteSpace=wrap;html=1;fillColor=#f8cecc;strokeColor=#b85450;opacity=80;" vertex="1" parent="XDL7qdiM2E-naXSdZjuc-242">
          <mxGeometry y="102" width="260" height="70" as="geometry" />
        </mxCell>
        <mxCell id="XDL7qdiM2E-naXSdZjuc-224" value="&lt;div style=&quot;font-family: Consolas, &amp;quot;Courier New&amp;quot;, monospace; font-weight: normal; font-size: 14px; line-height: 19px; white-space: pre;&quot;&gt;&lt;div style=&quot;&quot;&gt;&lt;div style=&quot;line-height: 19px;&quot;&gt;&lt;span style=&quot;font-style: italic;&quot;&gt;&lt;font style=&quot;color: rgb(255, 0, 0);&quot;&gt;全局接口类型&lt;/font&gt;&lt;/span&gt;&lt;/div&gt;&lt;/div&gt;&lt;/div&gt;" style="text;whiteSpace=wrap;html=1;" vertex="1" parent="XDL7qdiM2E-naXSdZjuc-242">
          <mxGeometry x="64" y="20" width="120" height="40" as="geometry" />
        </mxCell>
        <mxCell id="XDL7qdiM2E-naXSdZjuc-225" value="ecisaccountsync\src\common\type.ts" style="text;html=1;align=center;verticalAlign=middle;resizable=0;points=[];autosize=1;strokeColor=none;fillColor=none;" vertex="1" parent="XDL7qdiM2E-naXSdZjuc-242">
          <mxGeometry x="15" y="60" width="220" height="30" as="geometry" />
        </mxCell>
        <mxCell id="XDL7qdiM2E-naXSdZjuc-243" value="" style="group" vertex="1" connectable="0" parent="1">
          <mxGeometry x="2600" y="648" width="230" height="152" as="geometry" />
        </mxCell>
        <mxCell id="XDL7qdiM2E-naXSdZjuc-220" value="日志的配置和初始化" style="rounded=1;whiteSpace=wrap;html=1;fillColor=#f8cecc;strokeColor=#b85450;opacity=80;" vertex="1" parent="XDL7qdiM2E-naXSdZjuc-243">
          <mxGeometry x="30" y="82" width="170" height="70" as="geometry" />
        </mxCell>
        <mxCell id="XDL7qdiM2E-naXSdZjuc-221" value="&lt;div style=&quot;font-family: Consolas, &amp;quot;Courier New&amp;quot;, monospace; font-weight: normal; font-size: 14px; line-height: 19px; white-space: pre;&quot;&gt;&lt;div style=&quot;&quot;&gt;&lt;div style=&quot;line-height: 19px;&quot;&gt;&lt;span style=&quot;font-style: italic;&quot;&gt;&lt;font style=&quot;color: rgb(255, 0, 0);&quot;&gt;全局日志配置接口&lt;/font&gt;&lt;/span&gt;&lt;/div&gt;&lt;/div&gt;&lt;/div&gt;" style="text;whiteSpace=wrap;html=1;" vertex="1" parent="XDL7qdiM2E-naXSdZjuc-243">
          <mxGeometry x="54" width="120" height="40" as="geometry" />
        </mxCell>
        <mxCell id="XDL7qdiM2E-naXSdZjuc-222" value="ecisaccountsync\src\common\logger.ts" style="text;html=1;align=center;verticalAlign=middle;resizable=0;points=[];autosize=1;strokeColor=none;fillColor=none;" vertex="1" parent="XDL7qdiM2E-naXSdZjuc-243">
          <mxGeometry y="40" width="230" height="30" as="geometry" />
        </mxCell>
        <mxCell id="XDL7qdiM2E-naXSdZjuc-244" value="" style="group" vertex="1" connectable="0" parent="1">
          <mxGeometry x="2920" y="650" width="260" height="152" as="geometry" />
        </mxCell>
        <mxCell id="XDL7qdiM2E-naXSdZjuc-227" value="定义了各种全局的工具函数" style="rounded=1;whiteSpace=wrap;html=1;fillColor=#f8cecc;strokeColor=#b85450;opacity=80;" vertex="1" parent="XDL7qdiM2E-naXSdZjuc-244">
          <mxGeometry y="82" width="260" height="70" as="geometry" />
        </mxCell>
        <mxCell id="XDL7qdiM2E-naXSdZjuc-228" value="&lt;div style=&quot;font-family: Consolas, &amp;quot;Courier New&amp;quot;, monospace; font-weight: normal; font-size: 14px; line-height: 19px; white-space: pre;&quot;&gt;&lt;div style=&quot;&quot;&gt;&lt;div style=&quot;line-height: 19px;&quot;&gt;&lt;span style=&quot;font-style: italic;&quot;&gt;&lt;font style=&quot;color: rgb(255, 0, 0);&quot;&gt;全局工具函数&lt;/font&gt;&lt;/span&gt;&lt;/div&gt;&lt;/div&gt;&lt;/div&gt;" style="text;whiteSpace=wrap;html=1;" vertex="1" parent="XDL7qdiM2E-naXSdZjuc-244">
          <mxGeometry x="64" width="120" height="40" as="geometry" />
        </mxCell>
        <mxCell id="XDL7qdiM2E-naXSdZjuc-229" value="ecisaccountsync\src\common\util.ts" style="text;html=1;align=center;verticalAlign=middle;resizable=0;points=[];autosize=1;strokeColor=none;fillColor=none;" vertex="1" parent="XDL7qdiM2E-naXSdZjuc-244">
          <mxGeometry x="20" y="40" width="210" height="30" as="geometry" />
        </mxCell>
        <mxCell id="XDL7qdiM2E-naXSdZjuc-245" value="" style="group" vertex="1" connectable="0" parent="1">
          <mxGeometry x="3350" y="450" width="310" height="352" as="geometry" />
        </mxCell>
        <mxCell id="XDL7qdiM2E-naXSdZjuc-230" value="" style="rounded=1;whiteSpace=wrap;html=1;fillColor=#f8cecc;strokeColor=#b85450;opacity=80;" vertex="1" parent="XDL7qdiM2E-naXSdZjuc-245">
          <mxGeometry x="9" y="72" width="301" height="280" as="geometry" />
        </mxCell>
        <mxCell id="XDL7qdiM2E-naXSdZjuc-231" value="&lt;div style=&quot;color: rgb(216, 222, 233); font-family: Consolas, &amp;quot;Courier New&amp;quot;, monospace; font-size: 14px; line-height: 19px; white-space: pre;&quot;&gt;&lt;div style=&quot;line-height: 19px;&quot;&gt;&lt;span&gt;&lt;span style=&quot;color: rgb(170, 155, 245);&quot;&gt;count&lt;/span&gt;&lt;span style=&quot;color: rgb(214, 214, 221);&quot;&gt;:&lt;/span&gt; &lt;span style=&quot;color: rgb(130, 210, 206);&quot;&gt;number&lt;/span&gt;&lt;/span&gt;&lt;/div&gt;&lt;/div&gt;" style="rounded=0;whiteSpace=wrap;html=1;fillColor=#f8cecc;strokeColor=#b85450;" vertex="1" parent="XDL7qdiM2E-naXSdZjuc-245">
          <mxGeometry x="30" y="132" width="110" height="30" as="geometry" />
        </mxCell>
        <mxCell id="XDL7qdiM2E-naXSdZjuc-232" value="&lt;div style=&quot;color: rgb(216, 222, 233); font-family: Consolas, &amp;quot;Courier New&amp;quot;, monospace; font-size: 14px; line-height: 19px; white-space: pre;&quot;&gt;&lt;div style=&quot;line-height: 19px;&quot;&gt;&lt;div style=&quot;line-height: 19px;&quot;&gt;&lt;span&gt;&lt;span style=&quot;color: rgb(170, 155, 245);&quot;&gt;resolveFunc&lt;/span&gt;&lt;span style=&quot;color: rgb(214, 214, 221);&quot;&gt;:&lt;/span&gt; &lt;span style=&quot;color: rgb(130, 210, 206);&quot;&gt;any&lt;/span&gt;&lt;/span&gt;&lt;/div&gt;&lt;/div&gt;&lt;/div&gt;" style="rounded=0;whiteSpace=wrap;html=1;fillColor=#f8cecc;strokeColor=#b85450;" vertex="1" parent="XDL7qdiM2E-naXSdZjuc-245">
          <mxGeometry x="150" y="132" width="140" height="30" as="geometry" />
        </mxCell>
        <mxCell id="XDL7qdiM2E-naXSdZjuc-233" value="&lt;span style=&quot;color: rgba(0, 0, 0, 0); font-family: monospace; font-size: 0px; text-align: start;&quot;&gt;%3CmxGraphModel%3E%3Croot%3E%3CmxCell%20id%3D%220%22%2F%3E%3CmxCell%20id%3D%221%22%20parent%3D%220%22%2F%3E%3CmxCell%20id%3D%222%22%20value%3D%22%26lt%3Bdiv%20style%3D%26quot%3Bcolor%3A%20rgb(216%2C%20222%2C%20233)%3B%20background-color%3A%20rgb(26%2C%2026%2C%2026)%3B%20font-family%3A%20Consolas%2C%20%26amp%3Bquot%3BCourier%20New%26amp%3Bquot%3B%2C%20monospace%3B%20font-size%3A%2014px%3B%20line-height%3A%2019px%3B%20white-space%3A%20pre%3B%26quot%3B%26gt%3B%26lt%3Bspan%20style%3D%26quot%3Bcolor%3A%20%23aa9bf5%3B%26quot%3B%26gt%3Bctx%26lt%3B%2Fspan%26gt%3B%26lt%3Bspan%20style%3D%26quot%3Bcolor%3A%20%23d6d6dd%3B%26quot%3B%26gt%3B%3A%26lt%3B%2Fspan%26gt%3B%20%26lt%3Bspan%20style%3D%26quot%3Bcolor%3A%20%2387c3ff%3B%26quot%3B%26gt%3BWPS4Context%26lt%3B%2Fspan%26gt%3B%26lt%3B%2Fdiv%26gt%3B%22%20style%3D%22rounded%3D0%3BwhiteSpace%3Dwrap%3Bhtml%3D1%3BfillColor%3D%23f8cecc%3BstrokeColor%3D%23b85450%3B%22%20vertex%3D%221%22%20parent%3D%221%22%3E%3CmxGeometry%20x%3D%22280%22%20y%3D%22290%22%20width%3D%22120%22%20height%3D%2230%22%20as%3D%22geometry%22%2F%3E%3C%2FmxCell%3E%3C%2Froot%3E%3C%2FmxGraphModel%3E&lt;/span&gt;" style="text;html=1;align=center;verticalAlign=middle;resizable=0;points=[];autosize=1;strokeColor=none;fillColor=none;" vertex="1" parent="XDL7qdiM2E-naXSdZjuc-245">
          <mxGeometry x="79" y="172" width="20" height="30" as="geometry" />
        </mxCell>
        <mxCell id="XDL7qdiM2E-naXSdZjuc-234" value="&lt;div style=&quot;font-family: Consolas, &amp;quot;Courier New&amp;quot;, monospace; font-weight: normal; font-size: 14px; line-height: 19px; white-space: pre;&quot;&gt;&lt;div style=&quot;&quot;&gt;&lt;div style=&quot;line-height: 19px;&quot;&gt;&lt;span style=&quot;font-style: italic;&quot;&gt;&lt;font style=&quot;color: rgb(255, 0, 0);&quot;&gt;倒计时锁存器类&lt;/font&gt;&lt;/span&gt;&lt;/div&gt;&lt;/div&gt;&lt;/div&gt;" style="text;whiteSpace=wrap;html=1;" vertex="1" parent="XDL7qdiM2E-naXSdZjuc-245">
          <mxGeometry x="110" width="120" height="40" as="geometry" />
        </mxCell>
        <mxCell id="XDL7qdiM2E-naXSdZjuc-235" value="ecisaccountsync\src\common\CountDownLatch.ts" style="text;html=1;align=center;verticalAlign=middle;resizable=0;points=[];autosize=1;strokeColor=none;fillColor=none;" vertex="1" parent="XDL7qdiM2E-naXSdZjuc-245">
          <mxGeometry y="40" width="290" height="30" as="geometry" />
        </mxCell>
        <mxCell id="XDL7qdiM2E-naXSdZjuc-236" value="&lt;div style=&quot;color: rgb(216, 222, 233); font-family: Consolas, &amp;quot;Courier New&amp;quot;, monospace; font-size: 14px; line-height: 19px; white-space: pre;&quot;&gt;&lt;div style=&quot;line-height: 19px;&quot;&gt;&lt;div style=&quot;line-height: 19px;&quot;&gt;&lt;div style=&quot;line-height: 19px;&quot;&gt;&lt;span&gt;&lt;span style=&quot;color: rgb(170, 155, 245);&quot;&gt;promise&lt;/span&gt;&lt;span style=&quot;color: rgb(214, 214, 221);&quot;&gt;:&lt;/span&gt; &lt;span style=&quot;color: rgb(135, 195, 255);&quot;&gt;Promise&lt;/span&gt;&amp;lt;&lt;span style=&quot;color: rgb(130, 210, 206);&quot;&gt;unknown&lt;/span&gt;&amp;gt;&lt;/span&gt;&lt;/div&gt;&lt;/div&gt;&lt;/div&gt;&lt;/div&gt;" style="rounded=0;whiteSpace=wrap;html=1;fillColor=#f8cecc;strokeColor=#b85450;" vertex="1" parent="XDL7qdiM2E-naXSdZjuc-245">
          <mxGeometry x="30" y="172" width="260" height="30" as="geometry" />
        </mxCell>
        <mxCell id="XDL7qdiM2E-naXSdZjuc-237" value="&lt;div style=&quot;color: rgb(216, 222, 233); font-family: Consolas, &amp;quot;Courier New&amp;quot;, monospace; font-size: 14px; line-height: 19px; white-space: pre;&quot;&gt;&lt;div style=&quot;line-height: 19px;&quot;&gt;&lt;div style=&quot;line-height: 19px;&quot;&gt;&lt;div style=&quot;line-height: 19px;&quot;&gt;&lt;div style=&quot;line-height: 19px;&quot;&gt;&lt;span style=&quot;color: rgb(130, 210, 206);&quot;&gt;constructor&lt;/span&gt;&lt;/div&gt;&lt;/div&gt;&lt;/div&gt;&lt;/div&gt;&lt;/div&gt;" style="rounded=0;whiteSpace=wrap;html=1;fillColor=#f8cecc;strokeColor=#b85450;" vertex="1" parent="XDL7qdiM2E-naXSdZjuc-245">
          <mxGeometry x="30" y="212" width="260" height="30" as="geometry" />
        </mxCell>
        <mxCell id="XDL7qdiM2E-naXSdZjuc-238" value="&lt;div style=&quot;color: rgb(216, 222, 233); font-family: Consolas, &amp;quot;Courier New&amp;quot;, monospace; font-weight: normal; font-size: 14px; line-height: 19px; white-space: pre;&quot;&gt;&lt;div style=&quot;&quot;&gt;&lt;span style=&quot;color: rgb(239, 176, 128); font-weight: bold;&quot;&gt;await&lt;/span&gt;&lt;/div&gt;&lt;/div&gt;" style="rounded=0;whiteSpace=wrap;html=1;fillColor=#f8cecc;strokeColor=#b85450;" vertex="1" parent="XDL7qdiM2E-naXSdZjuc-245">
          <mxGeometry x="30" y="252" width="260" height="30" as="geometry" />
        </mxCell>
        <mxCell id="XDL7qdiM2E-naXSdZjuc-239" value="&lt;div style=&quot;color: rgb(216, 222, 233); font-family: Consolas, &amp;quot;Courier New&amp;quot;, monospace; font-size: 14px; line-height: 19px; white-space: pre;&quot;&gt;&lt;div style=&quot;line-height: 19px;&quot;&gt;&lt;div style=&quot;line-height: 19px;&quot;&gt;&lt;div style=&quot;line-height: 19px;&quot;&gt;&lt;div style=&quot;line-height: 19px;&quot;&gt;&lt;span style=&quot;color: rgb(239, 176, 128); font-weight: bold;&quot;&gt;countDown&lt;/span&gt;&lt;/div&gt;&lt;/div&gt;&lt;/div&gt;&lt;/div&gt;&lt;/div&gt;" style="rounded=0;whiteSpace=wrap;html=1;fillColor=#f8cecc;strokeColor=#b85450;" vertex="1" parent="XDL7qdiM2E-naXSdZjuc-245">
          <mxGeometry x="30" y="292" width="260" height="30" as="geometry" />
        </mxCell>
        <mxCell id="XDL7qdiM2E-naXSdZjuc-240" value="&lt;div style=&quot;font-family: Consolas, &amp;quot;Courier New&amp;quot;, monospace; font-size: 14px; line-height: 19px; white-space-collapse: preserve;&quot;&gt;&lt;span&gt;&lt;font style=&quot;color: rgb(255, 255, 255);&quot;&gt;CountDownLatch&lt;/font&gt;&lt;/span&gt;&lt;/div&gt;" style="text;html=1;align=center;verticalAlign=middle;resizable=0;points=[];autosize=1;strokeColor=none;fillColor=none;" vertex="1" parent="XDL7qdiM2E-naXSdZjuc-245">
          <mxGeometry x="90" y="82" width="130" height="30" as="geometry" />
        </mxCell>
        <mxCell id="XDL7qdiM2E-naXSdZjuc-246" value="" style="group" vertex="1" connectable="0" parent="1">
          <mxGeometry x="4010" y="510" width="1220" height="280" as="geometry" />
        </mxCell>
        <mxCell id="XDL7qdiM2E-naXSdZjuc-23" value="" style="group" vertex="1" connectable="0" parent="XDL7qdiM2E-naXSdZjuc-246">
          <mxGeometry x="50" y="20" width="1130" height="230" as="geometry" />
        </mxCell>
        <mxCell id="XDL7qdiM2E-naXSdZjuc-24" value="" style="rounded=1;whiteSpace=wrap;html=1;fillColor=#f5f5f5;strokeColor=#666666;fontColor=#333333;opacity=80;" vertex="1" parent="XDL7qdiM2E-naXSdZjuc-23">
          <mxGeometry y="85" width="340" height="145" as="geometry" />
        </mxCell>
        <mxCell id="XDL7qdiM2E-naXSdZjuc-25" value="ecisaccountsync\src\sdk\cognac\common\log\log.ts" style="text;html=1;align=center;verticalAlign=middle;resizable=0;points=[];autosize=1;strokeColor=none;fillColor=none;" vertex="1" parent="XDL7qdiM2E-naXSdZjuc-23">
          <mxGeometry x="25" y="48" width="300" height="30" as="geometry" />
        </mxCell>
        <mxCell id="XDL7qdiM2E-naXSdZjuc-26" value="&lt;div style=&quot;font-family: Consolas, &amp;quot;Courier New&amp;quot;, monospace; font-size: 14px; line-height: 19px; white-space-collapse: preserve;&quot;&gt;&lt;font color=&quot;#ff0000&quot;&gt;&lt;i&gt;Log模块&lt;/i&gt;&lt;/font&gt;&lt;/div&gt;" style="text;html=1;align=center;verticalAlign=middle;resizable=0;points=[];autosize=1;strokeColor=none;fillColor=none;" vertex="1" parent="XDL7qdiM2E-naXSdZjuc-23">
          <mxGeometry x="140" y="10" width="70" height="30" as="geometry" />
        </mxCell>
        <mxCell id="XDL7qdiM2E-naXSdZjuc-27" value="&lt;div style=&quot;color: rgb(216, 222, 233); font-family: Consolas, &amp;quot;Courier New&amp;quot;, monospace; font-size: 14px; line-height: 19px; white-space: pre;&quot;&gt;&lt;span&gt;&lt;span style=&quot;color: rgb(148, 193, 250);&quot;&gt;__logger&lt;/span&gt;&lt;span style=&quot;color: rgb(214, 214, 221);&quot;&gt;:&lt;/span&gt; &lt;span style=&quot;color: rgb(239, 176, 128);&quot;&gt;Logger&lt;/span&gt;&lt;/span&gt;&lt;/div&gt;" style="rounded=0;whiteSpace=wrap;html=1;fillColor=#f5f5f5;fontColor=#333333;strokeColor=#666666;" vertex="1" parent="XDL7qdiM2E-naXSdZjuc-23">
          <mxGeometry x="30" y="110" width="280" height="30" as="geometry" />
        </mxCell>
        <mxCell id="XDL7qdiM2E-naXSdZjuc-28" value="&lt;div style=&quot;color: rgb(216, 222, 233); font-family: Consolas, &amp;quot;Courier New&amp;quot;, monospace; font-size: 14px; line-height: 19px; white-space: pre;&quot;&gt;&lt;div style=&quot;line-height: 19px;&quot;&gt;&lt;span style=&quot;color: rgb(239, 176, 128); font-weight: bold;&quot;&gt;debug&lt;/span&gt;&lt;/div&gt;&lt;/div&gt;" style="rounded=0;whiteSpace=wrap;html=1;fillColor=#f5f5f5;fontColor=#333333;strokeColor=#666666;" vertex="1" parent="XDL7qdiM2E-naXSdZjuc-23">
          <mxGeometry x="30" y="170" width="70" height="30" as="geometry" />
        </mxCell>
        <mxCell id="XDL7qdiM2E-naXSdZjuc-29" value="&lt;div style=&quot;color: rgb(216, 222, 233); font-family: Consolas, &amp;quot;Courier New&amp;quot;, monospace; font-size: 14px; line-height: 19px; white-space: pre;&quot;&gt;&lt;div style=&quot;line-height: 19px;&quot;&gt;&lt;div style=&quot;line-height: 19px;&quot;&gt;&lt;span style=&quot;color: rgb(239, 176, 128); font-weight: bold;&quot;&gt;error&lt;/span&gt;&lt;/div&gt;&lt;/div&gt;&lt;/div&gt;" style="rounded=0;whiteSpace=wrap;html=1;fillColor=#f5f5f5;fontColor=#333333;strokeColor=#666666;" vertex="1" parent="XDL7qdiM2E-naXSdZjuc-23">
          <mxGeometry x="180" y="170" width="60" height="30" as="geometry" />
        </mxCell>
        <mxCell id="XDL7qdiM2E-naXSdZjuc-30" value="&lt;div style=&quot;color: rgb(216, 222, 233); font-family: Consolas, &amp;quot;Courier New&amp;quot;, monospace; font-size: 14px; line-height: 19px; white-space: pre;&quot;&gt;&lt;div style=&quot;line-height: 19px;&quot;&gt;&lt;div style=&quot;line-height: 19px;&quot;&gt;&lt;span style=&quot;color: rgb(239, 176, 128); font-weight: bold;&quot;&gt;info&lt;/span&gt;&lt;/div&gt;&lt;/div&gt;&lt;/div&gt;" style="rounded=0;whiteSpace=wrap;html=1;fillColor=#f5f5f5;fontColor=#333333;strokeColor=#666666;" vertex="1" parent="XDL7qdiM2E-naXSdZjuc-23">
          <mxGeometry x="110" y="170" width="60" height="30" as="geometry" />
        </mxCell>
        <mxCell id="XDL7qdiM2E-naXSdZjuc-31" value="&lt;div style=&quot;color: rgb(216, 222, 233); font-family: Consolas, &amp;quot;Courier New&amp;quot;, monospace; font-size: 14px; line-height: 19px; white-space: pre;&quot;&gt;&lt;div style=&quot;line-height: 19px;&quot;&gt;&lt;div style=&quot;line-height: 19px;&quot;&gt;&lt;span style=&quot;color: rgb(239, 176, 128); font-weight: bold;&quot;&gt;warn&lt;/span&gt;&lt;/div&gt;&lt;/div&gt;&lt;/div&gt;" style="rounded=0;whiteSpace=wrap;html=1;fillColor=#f5f5f5;fontColor=#333333;strokeColor=#666666;" vertex="1" parent="XDL7qdiM2E-naXSdZjuc-23">
          <mxGeometry x="250" y="170" width="60" height="30" as="geometry" />
        </mxCell>
        <mxCell id="XDL7qdiM2E-naXSdZjuc-32" value="" style="rounded=1;whiteSpace=wrap;html=1;fillColor=#f5f5f5;strokeColor=#666666;fontColor=#333333;opacity=80;" vertex="1" parent="XDL7qdiM2E-naXSdZjuc-23">
          <mxGeometry x="420" y="85" width="340" height="85" as="geometry" />
        </mxCell>
        <mxCell id="XDL7qdiM2E-naXSdZjuc-33" value="ecisaccountsync\src\sdk\cognac\common\log\ConsoleLogger.ts" style="text;html=1;align=center;verticalAlign=middle;resizable=0;points=[];autosize=1;strokeColor=none;fillColor=none;" vertex="1" parent="XDL7qdiM2E-naXSdZjuc-23">
          <mxGeometry x="415" y="48" width="360" height="30" as="geometry" />
        </mxCell>
        <mxCell id="XDL7qdiM2E-naXSdZjuc-34" value="&lt;div style=&quot;font-family: Consolas, &amp;quot;Courier New&amp;quot;, monospace; font-size: 14px; line-height: 19px; white-space-collapse: preserve;&quot;&gt;&lt;div style=&quot;line-height: 19px;&quot;&gt;&lt;span style=&quot;font-style: italic;&quot;&gt;&lt;font style=&quot;color: rgb(255, 0, 0);&quot;&gt;日志记录器实现&lt;/font&gt;&lt;/span&gt;&lt;/div&gt;&lt;/div&gt;" style="text;html=1;align=center;verticalAlign=middle;resizable=0;points=[];autosize=1;strokeColor=none;fillColor=none;" vertex="1" parent="XDL7qdiM2E-naXSdZjuc-23">
          <mxGeometry x="535" y="10" width="120" height="30" as="geometry" />
        </mxCell>
        <mxCell id="XDL7qdiM2E-naXSdZjuc-35" value="&lt;div style=&quot;color: rgb(216, 222, 233); font-family: Consolas, &amp;quot;Courier New&amp;quot;, monospace; font-size: 14px; line-height: 19px; white-space: pre;&quot;&gt;&lt;div style=&quot;line-height: 19px;&quot;&gt;&lt;span&gt;&amp;nbsp;&lt;span style=&quot;color: rgb(239, 176, 128); font-weight: bold;&quot;&gt;log&lt;/span&gt;(&lt;span style=&quot;color: rgb(214, 214, 221); font-style: italic;&quot;&gt;options&lt;/span&gt;&lt;span style=&quot;color: rgb(214, 214, 221);&quot;&gt;:&lt;/span&gt;&lt;span style=&quot;color: rgb(239, 176, 128);&quot;&gt;Options&lt;/span&gt;)&lt;span style=&quot;color: rgb(214, 214, 221);&quot;&gt;:&lt;/span&gt; &lt;span style=&quot;color: rgb(130, 210, 206);&quot;&gt;void&lt;/span&gt;&lt;/span&gt;&lt;/div&gt;&lt;/div&gt;" style="rounded=0;whiteSpace=wrap;html=1;fillColor=#f5f5f5;fontColor=#333333;strokeColor=#666666;" vertex="1" parent="XDL7qdiM2E-naXSdZjuc-23">
          <mxGeometry x="450" y="120" width="280" height="30" as="geometry" />
        </mxCell>
        <mxCell id="XDL7qdiM2E-naXSdZjuc-36" value="&lt;div style=&quot;font-family: Consolas, &amp;quot;Courier New&amp;quot;, monospace; font-size: 14px; line-height: 19px; white-space-collapse: preserve;&quot;&gt;&lt;span&gt;&lt;font style=&quot;color: rgb(51, 51, 51);&quot;&gt;ConsoleLogger &lt;/font&gt;&lt;/span&gt;&lt;span style=&quot;color: rgb(130, 210, 206);&quot;&gt;implements&lt;/span&gt;&lt;span style=&quot;color: rgb(216, 222, 233);&quot;&gt; &lt;/span&gt;&lt;span style=&quot;color: rgb(239, 176, 128);&quot;&gt;Logger&lt;/span&gt;&lt;/div&gt;" style="text;html=1;align=center;verticalAlign=middle;resizable=0;points=[];autosize=1;strokeColor=none;fillColor=none;" vertex="1" parent="XDL7qdiM2E-naXSdZjuc-23">
          <mxGeometry x="460" y="85" width="260" height="30" as="geometry" />
        </mxCell>
        <mxCell id="XDL7qdiM2E-naXSdZjuc-37" value="" style="endArrow=none;dashed=1;html=1;rounded=0;exitX=1;exitY=0.5;exitDx=0;exitDy=0;" edge="1" parent="XDL7qdiM2E-naXSdZjuc-23" source="XDL7qdiM2E-naXSdZjuc-27" target="XDL7qdiM2E-naXSdZjuc-32">
          <mxGeometry width="50" height="50" relative="1" as="geometry">
            <mxPoint x="330" y="320" as="sourcePoint" />
            <mxPoint x="380" y="270" as="targetPoint" />
          </mxGeometry>
        </mxCell>
        <mxCell id="XDL7qdiM2E-naXSdZjuc-38" value="" style="group" vertex="1" connectable="0" parent="XDL7qdiM2E-naXSdZjuc-23">
          <mxGeometry x="810" width="320" height="180" as="geometry" />
        </mxCell>
        <mxCell id="XDL7qdiM2E-naXSdZjuc-39" value="" style="rounded=1;whiteSpace=wrap;html=1;fillColor=#f5f5f5;strokeColor=#666666;fontColor=#333333;opacity=80;" vertex="1" parent="XDL7qdiM2E-naXSdZjuc-38">
          <mxGeometry x="20" y="75" width="270" height="105" as="geometry" />
        </mxCell>
        <mxCell id="XDL7qdiM2E-naXSdZjuc-40" value="ecisaccountsync\src\sdk\cognac\common\log\Logger.ts" style="text;html=1;align=center;verticalAlign=middle;resizable=0;points=[];autosize=1;strokeColor=none;fillColor=none;" vertex="1" parent="XDL7qdiM2E-naXSdZjuc-38">
          <mxGeometry y="38" width="320" height="30" as="geometry" />
        </mxCell>
        <mxCell id="XDL7qdiM2E-naXSdZjuc-41" value="&lt;div style=&quot;font-family: Consolas, &amp;quot;Courier New&amp;quot;, monospace; font-size: 14px; line-height: 19px; white-space-collapse: preserve;&quot;&gt;&lt;div style=&quot;line-height: 19px;&quot;&gt;&lt;font color=&quot;#ff0000&quot;&gt;&lt;i&gt;类型文件&lt;/i&gt;&lt;/font&gt;&lt;/div&gt;&lt;/div&gt;" style="text;html=1;align=center;verticalAlign=middle;resizable=0;points=[];autosize=1;strokeColor=none;fillColor=none;" vertex="1" parent="XDL7qdiM2E-naXSdZjuc-38">
          <mxGeometry x="120" width="80" height="30" as="geometry" />
        </mxCell>
        <mxCell id="XDL7qdiM2E-naXSdZjuc-42" value="&lt;div style=&quot;color: rgb(216, 222, 233); font-family: Consolas, &amp;quot;Courier New&amp;quot;, monospace; font-size: 14px; line-height: 19px; white-space: pre;&quot;&gt;&lt;div style=&quot;line-height: 19px;&quot;&gt;&lt;div style=&quot;line-height: 19px;&quot;&gt;&lt;div style=&quot;line-height: 19px;&quot;&gt;&lt;span style=&quot;color: rgb(239, 176, 128);&quot;&gt;Logger&lt;/span&gt;&lt;/div&gt;&lt;/div&gt;&lt;/div&gt;&lt;/div&gt;" style="rounded=0;whiteSpace=wrap;html=1;fillColor=#f5f5f5;fontColor=#333333;strokeColor=#666666;" vertex="1" parent="XDL7qdiM2E-naXSdZjuc-38">
          <mxGeometry x="50" y="90" width="95" height="30" as="geometry" />
        </mxCell>
        <mxCell id="XDL7qdiM2E-naXSdZjuc-43" value="&lt;div style=&quot;color: rgb(216, 222, 233); font-family: Consolas, &amp;quot;Courier New&amp;quot;, monospace; font-size: 14px; line-height: 19px; white-space: pre;&quot;&gt;&lt;div style=&quot;line-height: 19px;&quot;&gt;&lt;div style=&quot;line-height: 19px;&quot;&gt;&lt;div style=&quot;line-height: 19px;&quot;&gt;&lt;span style=&quot;color: rgb(239, 176, 128);&quot;&gt;Options&lt;/span&gt;&lt;/div&gt;&lt;/div&gt;&lt;/div&gt;&lt;/div&gt;" style="rounded=0;whiteSpace=wrap;html=1;fillColor=#f5f5f5;fontColor=#333333;strokeColor=#666666;" vertex="1" parent="XDL7qdiM2E-naXSdZjuc-38">
          <mxGeometry x="170" y="130" width="95" height="30" as="geometry" />
        </mxCell>
        <mxCell id="XDL7qdiM2E-naXSdZjuc-44" value="&lt;div style=&quot;color: rgb(216, 222, 233); font-family: Consolas, &amp;quot;Courier New&amp;quot;, monospace; font-size: 14px; line-height: 19px; white-space: pre;&quot;&gt;&lt;div style=&quot;line-height: 19px;&quot;&gt;&lt;div style=&quot;line-height: 19px;&quot;&gt;&lt;div style=&quot;line-height: 19px;&quot;&gt;&lt;span style=&quot;color: rgb(239, 176, 128);&quot;&gt;Mode&lt;/span&gt;&lt;/div&gt;&lt;/div&gt;&lt;/div&gt;&lt;/div&gt;" style="rounded=0;whiteSpace=wrap;html=1;fillColor=#f5f5f5;fontColor=#333333;strokeColor=#666666;" vertex="1" parent="XDL7qdiM2E-naXSdZjuc-38">
          <mxGeometry x="170" y="90" width="95" height="30" as="geometry" />
        </mxCell>
        <mxCell id="XDL7qdiM2E-naXSdZjuc-45" value="&lt;div style=&quot;color: rgb(216, 222, 233); font-family: Consolas, &amp;quot;Courier New&amp;quot;, monospace; font-size: 14px; line-height: 19px; white-space: pre;&quot;&gt;&lt;div style=&quot;line-height: 19px;&quot;&gt;&lt;div style=&quot;line-height: 19px;&quot;&gt;&lt;span style=&quot;color: rgb(239, 176, 128);&quot;&gt;Level&lt;/span&gt;&lt;/div&gt;&lt;/div&gt;&lt;/div&gt;" style="rounded=0;whiteSpace=wrap;html=1;fillColor=#f5f5f5;fontColor=#333333;strokeColor=#666666;" vertex="1" parent="XDL7qdiM2E-naXSdZjuc-38">
          <mxGeometry x="50" y="130" width="95" height="30" as="geometry" />
        </mxCell>
        <mxCell id="XDL7qdiM2E-naXSdZjuc-46" value="" style="endArrow=none;dashed=1;html=1;rounded=0;exitX=1.01;exitY=0.622;exitDx=0;exitDy=0;exitPerimeter=0;entryX=0;entryY=0.5;entryDx=0;entryDy=0;" edge="1" parent="XDL7qdiM2E-naXSdZjuc-23" source="XDL7qdiM2E-naXSdZjuc-36" target="XDL7qdiM2E-naXSdZjuc-42">
          <mxGeometry width="50" height="50" relative="1" as="geometry">
            <mxPoint x="900" y="370" as="sourcePoint" />
            <mxPoint x="950" y="320" as="targetPoint" />
          </mxGeometry>
        </mxCell>
        <mxCell id="XDL7qdiM2E-naXSdZjuc-58" value="" style="rounded=1;whiteSpace=wrap;html=1;fillColor=none;strokeColor=#999999;dashed=1;" vertex="1" parent="XDL7qdiM2E-naXSdZjuc-246">
          <mxGeometry width="1220" height="280" as="geometry" />
        </mxCell>
        <mxCell id="XDL7qdiM2E-naXSdZjuc-247" value="" style="group" vertex="1" connectable="0" parent="1">
          <mxGeometry x="3030" y="1040" width="418.5" height="770" as="geometry" />
        </mxCell>
        <mxCell id="XDL7qdiM2E-naXSdZjuc-2" value="&lt;div style=&quot;font-family: Consolas, &amp;quot;Courier New&amp;quot;, monospace; font-size: 14px; line-height: 19px; white-space-collapse: preserve;&quot;&gt;&lt;span style=&quot;font-style: italic;&quot;&gt;&lt;font style=&quot;color: rgb(255, 0, 0);&quot;&gt;管理员管理同步任务的核心服务类&lt;/font&gt;&lt;/span&gt;&lt;/div&gt;" style="text;html=1;align=center;verticalAlign=middle;resizable=0;points=[];autosize=1;strokeColor=none;fillColor=none;" vertex="1" parent="XDL7qdiM2E-naXSdZjuc-247">
          <mxGeometry x="75" width="230" height="30" as="geometry" />
        </mxCell>
        <mxCell id="XDL7qdiM2E-naXSdZjuc-3" value="" style="rounded=1;whiteSpace=wrap;html=1;fillColor=#dae8fc;strokeColor=#6c8ebf;opacity=80;" vertex="1" parent="XDL7qdiM2E-naXSdZjuc-247">
          <mxGeometry y="80" width="380" height="170" as="geometry" />
        </mxCell>
        <mxCell id="XDL7qdiM2E-naXSdZjuc-4" value="&lt;div style=&quot;color: rgb(216, 222, 233); font-family: Consolas, &amp;quot;Courier New&amp;quot;, monospace; font-size: 14px; line-height: 19px; white-space: pre;&quot;&gt;&lt;span style=&quot;color: rgb(170, 155, 245);&quot;&gt;lasAdminService&lt;/span&gt;&lt;/div&gt;" style="rounded=0;whiteSpace=wrap;html=1;fillColor=#dae8fc;strokeColor=#6c8ebf;" vertex="1" parent="XDL7qdiM2E-naXSdZjuc-247">
          <mxGeometry x="36" y="120" width="120" height="30" as="geometry" />
        </mxCell>
        <mxCell id="XDL7qdiM2E-naXSdZjuc-5" value="&lt;div style=&quot;color: rgb(216, 222, 233); font-family: Consolas, &amp;quot;Courier New&amp;quot;, monospace; font-size: 14px; line-height: 19px; white-space: pre;&quot;&gt;&lt;div style=&quot;line-height: 19px;&quot;&gt;&lt;span style=&quot;color: rgb(170, 155, 245);&quot;&gt;fullSyncTaskService&lt;/span&gt;&lt;/div&gt;&lt;/div&gt;" style="rounded=0;whiteSpace=wrap;html=1;fillColor=#dae8fc;strokeColor=#6c8ebf;" vertex="1" parent="XDL7qdiM2E-naXSdZjuc-247">
          <mxGeometry x="181" y="120" width="155" height="30" as="geometry" />
        </mxCell>
        <mxCell id="XDL7qdiM2E-naXSdZjuc-6" value="获取全量同步、增量同步任务详情、列表、配置，&lt;div&gt;取消、终止任务，&lt;/div&gt;&lt;div&gt;判断是否可重试、重试任务、忽略重试任务&lt;/div&gt;&lt;div&gt;获取最近同步时间等等&lt;br&gt;&lt;div&gt;&lt;br&gt;&lt;/div&gt;&lt;/div&gt;" style="text;html=1;align=center;verticalAlign=middle;resizable=0;points=[];autosize=1;strokeColor=none;fillColor=none;" vertex="1" parent="XDL7qdiM2E-naXSdZjuc-247">
          <mxGeometry x="36" y="160" width="290" height="90" as="geometry" />
        </mxCell>
        <mxCell id="XDL7qdiM2E-naXSdZjuc-7" value="&lt;div style=&quot;font-family: Consolas, &amp;quot;Courier New&amp;quot;, monospace; font-size: 14px; line-height: 19px; white-space-collapse: preserve;&quot;&gt;&lt;span&gt;&lt;font style=&quot;color: rgb(255, 255, 255);&quot;&gt;Admin&lt;/font&gt;&lt;/span&gt;&lt;/div&gt;" style="text;html=1;align=center;verticalAlign=middle;resizable=0;points=[];autosize=1;strokeColor=none;fillColor=none;" vertex="1" parent="XDL7qdiM2E-naXSdZjuc-247">
          <mxGeometry x="146" y="80" width="60" height="30" as="geometry" />
        </mxCell>
        <mxCell id="XDL7qdiM2E-naXSdZjuc-8" value="ecisaccountsync\src\modules\admin\index.ts" style="text;html=1;align=center;verticalAlign=middle;resizable=0;points=[];autosize=1;strokeColor=none;fillColor=none;" vertex="1" parent="XDL7qdiM2E-naXSdZjuc-247">
          <mxGeometry x="60" y="38" width="260" height="30" as="geometry" />
        </mxCell>
        <mxCell id="XDL7qdiM2E-naXSdZjuc-9" value="" style="group" vertex="1" connectable="0" parent="XDL7qdiM2E-naXSdZjuc-247">
          <mxGeometry x="66" y="280" width="352.5" height="490" as="geometry" />
        </mxCell>
        <mxCell id="XDL7qdiM2E-naXSdZjuc-10" value="" style="rounded=1;whiteSpace=wrap;html=1;fillColor=#dae8fc;strokeColor=#6c8ebf;opacity=80;" vertex="1" parent="XDL7qdiM2E-naXSdZjuc-9">
          <mxGeometry x="10" y="112" width="230" height="170" as="geometry" />
        </mxCell>
        <mxCell id="XDL7qdiM2E-naXSdZjuc-11" value="&lt;div style=&quot;font-family: Consolas, &amp;quot;Courier New&amp;quot;, monospace; font-size: 14px; line-height: 19px; white-space-collapse: preserve;&quot;&gt;&lt;span style=&quot;font-style: italic;&quot;&gt;&lt;font style=&quot;color: rgb(255, 0, 0);&quot;&gt;日志服务类&lt;/font&gt;&lt;/span&gt;&lt;/div&gt;" style="text;html=1;align=center;verticalAlign=middle;resizable=0;points=[];autosize=1;strokeColor=none;fillColor=none;" vertex="1" parent="XDL7qdiM2E-naXSdZjuc-9">
          <mxGeometry x="90" y="32" width="90" height="30" as="geometry" />
        </mxCell>
        <mxCell id="XDL7qdiM2E-naXSdZjuc-12" value="ecisaccountsync\src\modules\admin\log.ts" style="text;html=1;align=center;verticalAlign=middle;resizable=0;points=[];autosize=1;strokeColor=none;fillColor=none;" vertex="1" parent="XDL7qdiM2E-naXSdZjuc-9">
          <mxGeometry y="70" width="250" height="30" as="geometry" />
        </mxCell>
        <mxCell id="XDL7qdiM2E-naXSdZjuc-13" value="&lt;div style=&quot;font-family: Consolas, &amp;quot;Courier New&amp;quot;, monospace; font-size: 14px; line-height: 19px; white-space-collapse: preserve;&quot;&gt;&lt;span&gt;&lt;font style=&quot;color: rgb(255, 255, 255);&quot;&gt;LogService&lt;/font&gt;&lt;/span&gt;&lt;/div&gt;" style="text;html=1;align=center;verticalAlign=middle;resizable=0;points=[];autosize=1;strokeColor=none;fillColor=none;" vertex="1" parent="XDL7qdiM2E-naXSdZjuc-9">
          <mxGeometry x="75" y="122" width="100" height="30" as="geometry" />
        </mxCell>
        <mxCell id="XDL7qdiM2E-naXSdZjuc-14" value="&lt;div style=&quot;font-family: Consolas, &amp;quot;Courier New&amp;quot;, monospace; font-size: 14px; line-height: 19px; white-space: pre;&quot;&gt;&lt;div style=&quot;line-height: 19px;&quot;&gt;&lt;div style=&quot;color: rgb(216, 222, 233); line-height: 19px;&quot;&gt;&lt;span&gt;&lt;span style=&quot;color: rgb(170, 155, 245);&quot;&gt;log&lt;/span&gt; &lt;span style=&quot;color: rgb(214, 214, 221);&quot;&gt;=&lt;/span&gt; &lt;span style=&quot;color: rgb(148, 193, 250);&quot;&gt;log&lt;/span&gt;&lt;/span&gt;&lt;/div&gt;&lt;/div&gt;&lt;/div&gt;" style="rounded=0;whiteSpace=wrap;html=1;fillColor=#dae8fc;strokeColor=#6c8ebf;" vertex="1" parent="XDL7qdiM2E-naXSdZjuc-9">
          <mxGeometry x="20" y="157" width="80" height="30" as="geometry" />
        </mxCell>
        <mxCell id="XDL7qdiM2E-naXSdZjuc-15" value="&lt;span style=&quot;color: rgba(0, 0, 0, 0); font-family: monospace; font-size: 0px; text-align: start;&quot;&gt;%3CmxGraphModel%3E%3Croot%3E%3CmxCell%20id%3D%220%22%2F%3E%3CmxCell%20id%3D%221%22%20parent%3D%220%22%2F%3E%3CmxCell%20id%3D%222%22%20value%3D%22%26lt%3Bdiv%20style%3D%26quot%3Bcolor%3A%20rgb(216%2C%20222%2C%20233)%3B%20font-family%3A%20Consolas%2C%20%26amp%3Bquot%3BCourier%20New%26amp%3Bquot%3B%2C%20monospace%3B%20font-size%3A%2014px%3B%20line-height%3A%2019px%3B%20white-space%3A%20pre%3B%26quot%3B%26gt%3B%26lt%3Bdiv%20style%3D%26quot%3Bline-height%3A%2019px%3B%26quot%3B%26gt%3B%26lt%3Bspan%20style%3D%26quot%3Bcolor%3A%20rgb(170%2C%20155%2C%20245)%3B%26quot%3B%26gt%3BfullSyncTaskService%26lt%3B%2Fspan%26gt%3B%26lt%3B%2Fdiv%26gt%3B%26lt%3B%2Fdiv%26gt%3B%22%20style%3D%22rounded%3D0%3BwhiteSpace%3Dwrap%3Bhtml%3D1%3BfillColor%3D%23dae8fc%3BstrokeColor%3D%236c8ebf%3B%22%20vertex%3D%221%22%20parent%3D%221%22%3E%3CmxGeometry%20x%3D%22215%22%20y%3D%22260%22%20width%3D%22155%22%20height%3D%2230%22%20as%3D%22geometry%22%2F%3E%3C%2FmxCell%3E%3C%2Froot%3E%3C%2FmxGraphModel%3E&lt;/span&gt;" style="text;html=1;align=center;verticalAlign=middle;resizable=0;points=[];autosize=1;strokeColor=none;fillColor=none;" vertex="1" parent="XDL7qdiM2E-naXSdZjuc-9">
          <mxGeometry x="130" width="20" height="30" as="geometry" />
        </mxCell>
        <mxCell id="XDL7qdiM2E-naXSdZjuc-16" value="&lt;div style=&quot;font-family: Consolas, &amp;quot;Courier New&amp;quot;, monospace; font-size: 14px; line-height: 19px; white-space: pre;&quot;&gt;&lt;div style=&quot;line-height: 19px;&quot;&gt;&lt;div style=&quot;color: rgb(216, 222, 233); line-height: 19px;&quot;&gt;&lt;div style=&quot;line-height: 19px;&quot;&gt;&lt;span&gt;&lt;span style=&quot;color: rgb(170, 155, 245);&quot;&gt;uaParser&lt;/span&gt; &lt;span style=&quot;color: rgb(214, 214, 221);&quot;&gt;=&lt;/span&gt; &lt;span style=&quot;color: rgb(131, 214, 197);&quot;&gt;new&lt;/span&gt; &lt;span style=&quot;color: rgb(239, 176, 128);&quot;&gt;UAParser&lt;/span&gt;()&lt;/span&gt;&lt;/div&gt;&lt;/div&gt;&lt;/div&gt;&lt;/div&gt;" style="rounded=0;whiteSpace=wrap;html=1;fillColor=#dae8fc;strokeColor=#6c8ebf;" vertex="1" parent="XDL7qdiM2E-naXSdZjuc-9">
          <mxGeometry x="20" y="192" width="205" height="30" as="geometry" />
        </mxCell>
        <mxCell id="XDL7qdiM2E-naXSdZjuc-17" value="&lt;div style=&quot;font-family: Consolas, &amp;quot;Courier New&amp;quot;, monospace; font-size: 14px; line-height: 19px; white-space: pre;&quot;&gt;&lt;div style=&quot;line-height: 19px;&quot;&gt;&lt;div style=&quot;color: rgb(216, 222, 233); line-height: 19px;&quot;&gt;&lt;div style=&quot;line-height: 19px;&quot;&gt;&lt;span&gt;&lt;span style=&quot;color: rgb(170, 155, 245);&quot;&gt;audit&lt;/span&gt; &lt;span style=&quot;color: rgb(214, 214, 221);&quot;&gt;=&lt;/span&gt; &lt;span style=&quot;color: rgb(148, 193, 250);&quot;&gt;audit&lt;/span&gt;&lt;/span&gt;&lt;/div&gt;&lt;/div&gt;&lt;/div&gt;&lt;/div&gt;" style="rounded=0;whiteSpace=wrap;html=1;fillColor=#dae8fc;strokeColor=#6c8ebf;" vertex="1" parent="XDL7qdiM2E-naXSdZjuc-9">
          <mxGeometry x="115" y="157" width="110" height="30" as="geometry" />
        </mxCell>
        <mxCell id="XDL7qdiM2E-naXSdZjuc-18" value="记录日志、获取IP信息&lt;div&gt;解析设备信息&lt;/div&gt;" style="text;html=1;align=center;verticalAlign=middle;resizable=0;points=[];autosize=1;strokeColor=none;fillColor=none;" vertex="1" parent="XDL7qdiM2E-naXSdZjuc-9">
          <mxGeometry x="55" y="232" width="140" height="40" as="geometry" />
        </mxCell>
        <mxCell id="XDL7qdiM2E-naXSdZjuc-59" value="" style="rounded=1;whiteSpace=wrap;html=1;fillColor=none;strokeColor=#7EA6E0;dashed=1;" vertex="1" parent="XDL7qdiM2E-naXSdZjuc-9">
          <mxGeometry x="-107.5" y="-340" width="460" height="830" as="geometry" />
        </mxCell>
        <mxCell id="XDL7qdiM2E-naXSdZjuc-19" value="" style="group" vertex="1" connectable="0" parent="XDL7qdiM2E-naXSdZjuc-247">
          <mxGeometry x="66" y="580" width="250" height="120" as="geometry" />
        </mxCell>
        <mxCell id="XDL7qdiM2E-naXSdZjuc-20" value="定义了各种接口和变量" style="rounded=1;whiteSpace=wrap;html=1;fillColor=#dae8fc;strokeColor=#6c8ebf;opacity=80;" vertex="1" parent="XDL7qdiM2E-naXSdZjuc-19">
          <mxGeometry x="20" y="80" width="190" height="40" as="geometry" />
        </mxCell>
        <mxCell id="XDL7qdiM2E-naXSdZjuc-21" value="ecisaccountsync\src\modules\admin\type.ts" style="text;html=1;align=center;verticalAlign=middle;resizable=0;points=[];autosize=1;strokeColor=none;fillColor=none;" vertex="1" parent="XDL7qdiM2E-naXSdZjuc-19">
          <mxGeometry y="38" width="250" height="30" as="geometry" />
        </mxCell>
        <mxCell id="XDL7qdiM2E-naXSdZjuc-22" value="&lt;div style=&quot;font-family: Consolas, &amp;quot;Courier New&amp;quot;, monospace; font-size: 14px; line-height: 19px; white-space-collapse: preserve;&quot;&gt;&lt;font style=&quot;color: rgb(255, 0, 0);&quot;&gt;&lt;i&gt;类型文件&lt;/i&gt;&lt;/font&gt;&lt;/div&gt;" style="text;html=1;align=center;verticalAlign=middle;resizable=0;points=[];autosize=1;strokeColor=none;fillColor=none;" vertex="1" parent="XDL7qdiM2E-naXSdZjuc-19">
          <mxGeometry x="60" width="80" height="30" as="geometry" />
        </mxCell>
        <mxCell id="XDL7qdiM2E-naXSdZjuc-248" value="" style="group" vertex="1" connectable="0" parent="1">
          <mxGeometry x="4410" y="1040" width="700" height="290" as="geometry" />
        </mxCell>
        <mxCell id="XDL7qdiM2E-naXSdZjuc-1" value="" style="rounded=1;whiteSpace=wrap;html=1;fillColor=none;fontColor=#ffffff;strokeColor=#432D57;dashed=1;" vertex="1" parent="XDL7qdiM2E-naXSdZjuc-248">
          <mxGeometry width="700" height="290" as="geometry" />
        </mxCell>
        <mxCell id="XDL7qdiM2E-naXSdZjuc-47" value="" style="rounded=1;whiteSpace=wrap;html=1;fillColor=#76608a;fontColor=#ffffff;strokeColor=#432D57;opacity=80;" vertex="1" parent="XDL7qdiM2E-naXSdZjuc-248">
          <mxGeometry x="40" y="82" width="290" height="168" as="geometry" />
        </mxCell>
        <mxCell id="XDL7qdiM2E-naXSdZjuc-48" value="&lt;div style=&quot;color: rgb(216, 222, 233); font-family: Consolas, &amp;quot;Courier New&amp;quot;, monospace; font-size: 14px; line-height: 19px; white-space: pre;&quot;&gt;&lt;span&gt;&lt;span style=&quot;color: rgb(170, 155, 245);&quot;&gt;docmini&lt;/span&gt; &lt;span style=&quot;color: rgb(214, 214, 221);&quot;&gt;=&lt;/span&gt; &lt;span style=&quot;color: rgb(148, 193, 250);&quot;&gt;docmini&lt;/span&gt;&lt;/span&gt;&lt;/div&gt;" style="rounded=0;whiteSpace=wrap;html=1;fillColor=#76608a;fontColor=#ffffff;strokeColor=#432D57;" vertex="1" parent="XDL7qdiM2E-naXSdZjuc-248">
          <mxGeometry x="100" y="100" width="150" height="30" as="geometry" />
        </mxCell>
        <mxCell id="XDL7qdiM2E-naXSdZjuc-49" value="&lt;div style=&quot;font-family: Consolas, &amp;quot;Courier New&amp;quot;, monospace; font-size: 14px; line-height: 19px; white-space-collapse: preserve;&quot;&gt;&lt;div style=&quot;line-height: 19px;&quot;&gt;&lt;span style=&quot;font-style: italic;&quot;&gt;&lt;font style=&quot;color: rgb(255, 0, 0);&quot;&gt;审计日志服务类&lt;/font&gt;&lt;/span&gt;&lt;/div&gt;&lt;/div&gt;" style="text;html=1;align=center;verticalAlign=middle;resizable=0;points=[];autosize=1;strokeColor=none;fillColor=none;" vertex="1" parent="XDL7qdiM2E-naXSdZjuc-248">
          <mxGeometry x="115" y="10" width="120" height="30" as="geometry" />
        </mxCell>
        <mxCell id="XDL7qdiM2E-naXSdZjuc-50" value="ecisaccountsync\src\modules\audit\index.ts" style="text;html=1;align=center;verticalAlign=middle;resizable=0;points=[];autosize=1;strokeColor=none;fillColor=none;" vertex="1" parent="XDL7qdiM2E-naXSdZjuc-248">
          <mxGeometry x="60" y="48" width="250" height="30" as="geometry" />
        </mxCell>
        <mxCell id="XDL7qdiM2E-naXSdZjuc-51" value="&lt;div style=&quot;color: rgb(216, 222, 233); font-family: Consolas, &amp;quot;Courier New&amp;quot;, monospace; font-size: 14px; line-height: 19px; white-space: pre;&quot;&gt;&lt;span&gt;&lt;span style=&quot;color: rgb(170, 155, 245);&quot;&gt;rootOpType&lt;/span&gt;&lt;span style=&quot;color: rgb(214, 214, 221);&quot;&gt;:&lt;/span&gt; &lt;span style=&quot;color: rgb(239, 176, 128);&quot;&gt;BaseOpTypeEnum&lt;/span&gt;&lt;/span&gt;&lt;/div&gt;" style="rounded=0;whiteSpace=wrap;html=1;fillColor=#76608a;fontColor=#ffffff;strokeColor=#432D57;" vertex="1" parent="XDL7qdiM2E-naXSdZjuc-248">
          <mxGeometry x="77.5" y="150" width="215" height="30" as="geometry" />
        </mxCell>
        <mxCell id="XDL7qdiM2E-naXSdZjuc-52" value="初始化、写入日志、解析日志等" style="text;html=1;align=center;verticalAlign=middle;resizable=0;points=[];autosize=1;strokeColor=none;fillColor=none;" vertex="1" parent="XDL7qdiM2E-naXSdZjuc-248">
          <mxGeometry x="90" y="190" width="190" height="30" as="geometry" />
        </mxCell>
        <mxCell id="XDL7qdiM2E-naXSdZjuc-53" value="" style="group" vertex="1" connectable="0" parent="XDL7qdiM2E-naXSdZjuc-248">
          <mxGeometry x="431" y="70" width="250" height="120" as="geometry" />
        </mxCell>
        <mxCell id="XDL7qdiM2E-naXSdZjuc-54" value="定义了各种接口和变量" style="rounded=1;whiteSpace=wrap;html=1;fillColor=#76608a;strokeColor=#432D57;opacity=80;fontColor=#ffffff;" vertex="1" parent="XDL7qdiM2E-naXSdZjuc-53">
          <mxGeometry x="20" y="80" width="190" height="40" as="geometry" />
        </mxCell>
        <mxCell id="XDL7qdiM2E-naXSdZjuc-55" value="ecisaccountsync\src\modules\audit\type.ts" style="text;html=1;align=center;verticalAlign=middle;resizable=0;points=[];autosize=1;strokeColor=none;fillColor=none;" vertex="1" parent="XDL7qdiM2E-naXSdZjuc-53">
          <mxGeometry y="38" width="250" height="30" as="geometry" />
        </mxCell>
        <mxCell id="XDL7qdiM2E-naXSdZjuc-56" value="&lt;div style=&quot;font-family: Consolas, &amp;quot;Courier New&amp;quot;, monospace; font-size: 14px; line-height: 19px; white-space-collapse: preserve;&quot;&gt;&lt;font style=&quot;color: rgb(255, 0, 0);&quot;&gt;&lt;i&gt;类型文件&lt;/i&gt;&lt;/font&gt;&lt;/div&gt;" style="text;html=1;align=center;verticalAlign=middle;resizable=0;points=[];autosize=1;strokeColor=none;fillColor=none;" vertex="1" parent="XDL7qdiM2E-naXSdZjuc-53">
          <mxGeometry x="60" width="80" height="30" as="geometry" />
        </mxCell>
        <mxCell id="XDL7qdiM2E-naXSdZjuc-57" value="" style="endArrow=none;dashed=1;html=1;rounded=0;exitX=1;exitY=0.75;exitDx=0;exitDy=0;entryX=0;entryY=0.5;entryDx=0;entryDy=0;" edge="1" parent="XDL7qdiM2E-naXSdZjuc-248" source="XDL7qdiM2E-naXSdZjuc-51" target="XDL7qdiM2E-naXSdZjuc-54">
          <mxGeometry width="50" height="50" relative="1" as="geometry">
            <mxPoint x="330" y="190" as="sourcePoint" />
            <mxPoint x="380" y="140" as="targetPoint" />
          </mxGeometry>
        </mxCell>
        <mxCell id="XDL7qdiM2E-naXSdZjuc-249" value="" style="group" vertex="1" connectable="0" parent="1">
          <mxGeometry x="1740" y="2230" width="3119" height="1405" as="geometry" />
        </mxCell>
        <mxCell id="XDL7qdiM2E-naXSdZjuc-72" style="edgeStyle=orthogonalEdgeStyle;rounded=0;orthogonalLoop=1;jettySize=auto;html=1;exitX=0;exitY=0.5;exitDx=0;exitDy=0;entryX=0.5;entryY=0;entryDx=0;entryDy=0;" edge="1" parent="XDL7qdiM2E-naXSdZjuc-249" source="XDL7qdiM2E-naXSdZjuc-146" target="XDL7qdiM2E-naXSdZjuc-74">
          <mxGeometry relative="1" as="geometry" />
        </mxCell>
        <mxCell id="XDL7qdiM2E-naXSdZjuc-73" value="" style="group;fillColor=#000000;" vertex="1" connectable="0" parent="XDL7qdiM2E-naXSdZjuc-249">
          <mxGeometry x="1079" y="370" width="460" height="100" as="geometry" />
        </mxCell>
        <mxCell id="XDL7qdiM2E-naXSdZjuc-74" value="" style="rounded=0;whiteSpace=wrap;html=1;fillColor=#000000;fontColor=#ffffff;strokeColor=#314354;" vertex="1" parent="XDL7qdiM2E-naXSdZjuc-73">
          <mxGeometry width="460" height="100" as="geometry" />
        </mxCell>
        <mxCell id="XDL7qdiM2E-naXSdZjuc-75" value="&lt;div style=&quot;color: rgb(216, 222, 233); font-family: Consolas, &amp;quot;Courier New&amp;quot;, monospace; font-size: 14px; line-height: 19px; white-space: pre;&quot;&gt;&lt;div style=&quot;line-height: 19px;&quot;&gt;&lt;div style=&quot;&quot;&gt;&lt;span&gt;&lt;span style=&quot;color: rgb(239, 176, 128); font-weight: bold;&quot;&gt;add&lt;/span&gt;(&lt;span style=&quot;color: rgb(214, 214, 221); font-style: italic;&quot;&gt;ovs&lt;/span&gt;&lt;span style=&quot;color: rgb(214, 214, 221);&quot;&gt;:&lt;/span&gt; &lt;span style=&quot;color: rgb(239, 176, 128);&quot;&gt;Partial&lt;/span&gt;&amp;lt;&lt;span style=&quot;color: rgb(239, 176, 128);&quot;&gt;TSchema&lt;/span&gt;&amp;gt;)&lt;span style=&quot;color: rgb(214, 214, 221);&quot;&gt;:&lt;/span&gt; &lt;span style=&quot;color: rgb(135, 195, 255);&quot;&gt;TableAdd&lt;/span&gt;&amp;lt;&lt;span style=&quot;color: rgb(239, 176, 128);&quot;&gt;TSchema&lt;/span&gt;&amp;gt; {&lt;/span&gt;&lt;/div&gt;&lt;div style=&quot;&quot;&gt;&lt;span&gt;&amp;nbsp; &amp;nbsp; &lt;span style=&quot;color: #83d6c5;&quot;&gt;return&lt;/span&gt; &lt;span style=&quot;color: #83d6c5;&quot;&gt;new&lt;/span&gt; &lt;span style=&quot;color: #87c3ff;&quot;&gt;TableAdd&lt;/span&gt;&amp;lt;&lt;span style=&quot;color: #efb080;&quot;&gt;TSchema&lt;/span&gt;&amp;gt;(&lt;span style=&quot;color: #c1808a;&quot;&gt;this&lt;/span&gt;, &lt;span style=&quot;color: #d6d6dd;font-style: italic;&quot;&gt;ovs&lt;/span&gt;)&lt;/span&gt;&lt;/div&gt;&lt;div style=&quot;&quot;&gt;&lt;span&gt;&amp;nbsp; }&lt;/span&gt;&lt;/div&gt;&lt;/div&gt;&lt;/div&gt;" style="text;html=1;align=center;verticalAlign=middle;whiteSpace=wrap;rounded=0;" vertex="1" parent="XDL7qdiM2E-naXSdZjuc-73">
          <mxGeometry x="161" y="33.33333333333333" width="138" height="20" as="geometry" />
        </mxCell>
        <mxCell id="XDL7qdiM2E-naXSdZjuc-76" value="" style="endArrow=none;dashed=1;html=1;rounded=0;entryX=0.5;entryY=1;entryDx=0;entryDy=0;exitX=0.002;exitY=0.426;exitDx=0;exitDy=0;exitPerimeter=0;" edge="1" parent="XDL7qdiM2E-naXSdZjuc-249" source="XDL7qdiM2E-naXSdZjuc-132" target="XDL7qdiM2E-naXSdZjuc-74">
          <mxGeometry width="50" height="50" relative="1" as="geometry">
            <mxPoint x="1479" y="1040" as="sourcePoint" />
            <mxPoint x="1519" y="960" as="targetPoint" />
            <Array as="points">
              <mxPoint x="1309" y="599" />
            </Array>
          </mxGeometry>
        </mxCell>
        <mxCell id="XDL7qdiM2E-naXSdZjuc-77" style="edgeStyle=orthogonalEdgeStyle;rounded=0;orthogonalLoop=1;jettySize=auto;html=1;exitX=1;exitY=0.5;exitDx=0;exitDy=0;entryX=0;entryY=0.5;entryDx=0;entryDy=0;" edge="1" parent="XDL7qdiM2E-naXSdZjuc-249" source="XDL7qdiM2E-naXSdZjuc-89" target="XDL7qdiM2E-naXSdZjuc-80">
          <mxGeometry relative="1" as="geometry">
            <mxPoint x="2849" y="590" as="targetPoint" />
          </mxGeometry>
        </mxCell>
        <mxCell id="XDL7qdiM2E-naXSdZjuc-78" value="" style="endArrow=none;dashed=1;html=1;dashPattern=1 3;strokeWidth=2;rounded=0;entryX=0.5;entryY=1;entryDx=0;entryDy=0;exitX=0.5;exitY=0;exitDx=0;exitDy=0;strokeColor=light-dark(#ff0000, #ededed);" edge="1" parent="XDL7qdiM2E-naXSdZjuc-249" source="XDL7qdiM2E-naXSdZjuc-86" target="XDL7qdiM2E-naXSdZjuc-118">
          <mxGeometry width="50" height="50" relative="1" as="geometry">
            <mxPoint x="2439" y="360" as="sourcePoint" />
            <mxPoint x="2489" y="310" as="targetPoint" />
          </mxGeometry>
        </mxCell>
        <mxCell id="XDL7qdiM2E-naXSdZjuc-79" value="" style="group;fillColor=#000000;" vertex="1" connectable="0" parent="XDL7qdiM2E-naXSdZjuc-249">
          <mxGeometry x="2869" y="500" width="180" height="55" as="geometry" />
        </mxCell>
        <mxCell id="XDL7qdiM2E-naXSdZjuc-80" value="" style="rounded=0;whiteSpace=wrap;html=1;fillColor=#000000;fontColor=#ffffff;strokeColor=#314354;" vertex="1" parent="XDL7qdiM2E-naXSdZjuc-79">
          <mxGeometry width="180" height="55" as="geometry" />
        </mxCell>
        <mxCell id="XDL7qdiM2E-naXSdZjuc-81" value="&lt;div style=&quot;font-family: Consolas, &amp;quot;Courier New&amp;quot;, monospace; font-size: 14px; line-height: 19px; white-space: pre; color: rgb(216, 222, 233);&quot;&gt;&lt;div style=&quot;line-height: 19px;&quot;&gt;&lt;div style=&quot;line-height: 19px;&quot;&gt;&lt;div style=&quot;line-height: 19px;&quot;&gt;&lt;font color=&quot;#82d2ce&quot;&gt;sql=&quot;insert&quot;&lt;/font&gt;&lt;/div&gt;&lt;/div&gt;&lt;/div&gt;&lt;/div&gt;" style="text;html=1;align=center;verticalAlign=middle;whiteSpace=wrap;rounded=0;" vertex="1" parent="XDL7qdiM2E-naXSdZjuc-79">
          <mxGeometry x="63.00000000000001" y="18.333333333333332" width="54.00000000000001" height="11" as="geometry" />
        </mxCell>
        <mxCell id="XDL7qdiM2E-naXSdZjuc-82" value="" style="endArrow=none;dashed=1;html=1;rounded=0;exitX=1;exitY=0.5;exitDx=0;exitDy=0;entryX=0;entryY=0.25;entryDx=0;entryDy=0;" edge="1" parent="XDL7qdiM2E-naXSdZjuc-249" source="XDL7qdiM2E-naXSdZjuc-135" target="XDL7qdiM2E-naXSdZjuc-86">
          <mxGeometry width="50" height="50" relative="1" as="geometry">
            <mxPoint x="2029" y="390" as="sourcePoint" />
            <mxPoint x="2159" y="370" as="targetPoint" />
          </mxGeometry>
        </mxCell>
        <mxCell id="XDL7qdiM2E-naXSdZjuc-83" value="" style="endArrow=none;dashed=1;html=1;rounded=0;entryX=0;entryY=0.5;entryDx=0;entryDy=0;exitX=0.5;exitY=0;exitDx=0;exitDy=0;" edge="1" parent="XDL7qdiM2E-naXSdZjuc-249" source="XDL7qdiM2E-naXSdZjuc-99" target="XDL7qdiM2E-naXSdZjuc-143">
          <mxGeometry width="50" height="50" relative="1" as="geometry">
            <mxPoint x="739" y="420" as="sourcePoint" />
            <mxPoint x="789" y="370" as="targetPoint" />
            <Array as="points">
              <mxPoint x="924" y="168" />
            </Array>
          </mxGeometry>
        </mxCell>
        <mxCell id="XDL7qdiM2E-naXSdZjuc-84" value="" style="group" vertex="1" connectable="0" parent="XDL7qdiM2E-naXSdZjuc-249">
          <mxGeometry x="2324" y="390" width="260" height="330" as="geometry" />
        </mxCell>
        <mxCell id="XDL7qdiM2E-naXSdZjuc-85" value="&lt;div style=&quot;font-family: Consolas, &amp;quot;Courier New&amp;quot;, monospace; font-size: 14px; line-height: 19px; white-space-collapse: preserve;&quot;&gt;&lt;span style=&quot;font-style: italic;&quot;&gt;&lt;font style=&quot;color: rgb(255, 0, 0);&quot;&gt;INSERT查询构建器&lt;/font&gt;&lt;/span&gt;&lt;/div&gt;" style="text;html=1;align=center;verticalAlign=middle;resizable=0;points=[];autosize=1;strokeColor=none;fillColor=none;" vertex="1" parent="XDL7qdiM2E-naXSdZjuc-84">
          <mxGeometry x="70" width="140" height="30" as="geometry" />
        </mxCell>
        <mxCell id="XDL7qdiM2E-naXSdZjuc-86" value="" style="rounded=1;whiteSpace=wrap;html=1;fillColor=#60a917;fontColor=#ffffff;strokeColor=#2D7600;opacity=70;" vertex="1" parent="XDL7qdiM2E-naXSdZjuc-84">
          <mxGeometry x="10" y="70" width="240" height="260" as="geometry" />
        </mxCell>
        <mxCell id="XDL7qdiM2E-naXSdZjuc-87" value="&lt;div style=&quot;font-family: Consolas, &amp;quot;Courier New&amp;quot;, monospace; font-size: 14px; line-height: 19px; white-space: pre;&quot;&gt;&lt;div style=&quot;color: rgb(216, 222, 233); line-height: 19px;&quot;&gt;&lt;span style=&quot;color: rgb(239, 176, 128); font-weight: bold;&quot;&gt;exec&lt;/span&gt;&lt;/div&gt;&lt;/div&gt;" style="rounded=0;whiteSpace=wrap;html=1;fillColor=#60a917;fontColor=#ffffff;strokeColor=#2D7600;" vertex="1" parent="XDL7qdiM2E-naXSdZjuc-84">
          <mxGeometry x="60" y="245" width="140" height="45" as="geometry" />
        </mxCell>
        <mxCell id="XDL7qdiM2E-naXSdZjuc-88" value="&lt;div style=&quot;font-family: Consolas, &amp;quot;Courier New&amp;quot;, monospace; font-size: 14px; line-height: 19px; white-space: pre;&quot;&gt;&lt;div style=&quot;color: rgb(216, 222, 233); line-height: 19px;&quot;&gt;&lt;span style=&quot;color: rgb(239, 176, 128); font-weight: bold;&quot;&gt;into&lt;/span&gt;&lt;/div&gt;&lt;/div&gt;" style="rounded=0;whiteSpace=wrap;html=1;fillColor=#60a917;fontColor=#ffffff;strokeColor=#2D7600;" vertex="1" parent="XDL7qdiM2E-naXSdZjuc-84">
          <mxGeometry x="60" y="180" width="140" height="50" as="geometry" />
        </mxCell>
        <mxCell id="XDL7qdiM2E-naXSdZjuc-89" value="&lt;div style=&quot;font-family: Consolas, &amp;quot;Courier New&amp;quot;, monospace; font-size: 14px; line-height: 19px; white-space: pre;&quot;&gt;constructor&lt;/div&gt;" style="rounded=0;whiteSpace=wrap;html=1;fillColor=#60a917;fontColor=#ffffff;strokeColor=#2D7600;" vertex="1" parent="XDL7qdiM2E-naXSdZjuc-84">
          <mxGeometry x="60" y="110" width="140" height="55" as="geometry" />
        </mxCell>
        <mxCell id="XDL7qdiM2E-naXSdZjuc-90" value="ecisaccountsync\src\sdk\cognac\orm\Table.ts" style="text;html=1;align=center;verticalAlign=middle;resizable=0;points=[];autosize=1;strokeColor=none;fillColor=none;" vertex="1" parent="XDL7qdiM2E-naXSdZjuc-84">
          <mxGeometry y="30" width="260" height="30" as="geometry" />
        </mxCell>
        <mxCell id="XDL7qdiM2E-naXSdZjuc-91" value="" style="group" vertex="1" connectable="0" parent="XDL7qdiM2E-naXSdZjuc-249">
          <mxGeometry x="159" y="680" width="1015" height="322.5" as="geometry" />
        </mxCell>
        <mxCell id="XDL7qdiM2E-naXSdZjuc-92" value="" style="group;fillColor=#000000;" vertex="1" connectable="0" parent="XDL7qdiM2E-naXSdZjuc-91">
          <mxGeometry y="172.5" width="507" height="150" as="geometry" />
        </mxCell>
        <mxCell id="XDL7qdiM2E-naXSdZjuc-93" value="" style="rounded=0;whiteSpace=wrap;html=1;fillColor=#000000;fontColor=#ffffff;strokeColor=#314354;" vertex="1" parent="XDL7qdiM2E-naXSdZjuc-92">
          <mxGeometry width="460" height="150" as="geometry" />
        </mxCell>
        <mxCell id="XDL7qdiM2E-naXSdZjuc-94" value="&lt;div style=&quot;color: rgb(216, 222, 233); font-family: Consolas, &amp;quot;Courier New&amp;quot;, monospace; font-size: 14px; line-height: 19px; white-space: pre;&quot;&gt;&lt;span&gt;&lt;span style=&quot;color: rgb(193, 128, 138);&quot;&gt;this&lt;/span&gt;.&lt;span style=&quot;color: rgb(239, 176, 128);&quot;&gt;initCollectDb&lt;/span&gt;()：&lt;span style=&quot;color: rgb(193, 128, 138);&quot;&gt;this&lt;/span&gt;&lt;span&gt;.&lt;/span&gt;&lt;span style=&quot;color: rgb(170, 155, 245);&quot;&gt;collectDb&lt;/span&gt;&lt;span&gt; &lt;/span&gt;&lt;span style=&quot;color: rgb(214, 214, 221);&quot;&gt;=&lt;/span&gt;&lt;span&gt; &lt;/span&gt;&lt;span style=&quot;color: rgb(131, 214, 197);&quot;&gt;new&lt;/span&gt;&lt;span&gt; &lt;/span&gt;&lt;span style=&quot;color: rgb(135, 195, 255);&quot;&gt;Database&lt;/span&gt;&lt;span&gt;()&lt;/span&gt;&lt;/span&gt;&lt;/div&gt;" style="text;html=1;align=center;verticalAlign=middle;whiteSpace=wrap;rounded=0;" vertex="1" parent="XDL7qdiM2E-naXSdZjuc-92">
          <mxGeometry x="161" y="17.5" width="138" height="30" as="geometry" />
        </mxCell>
        <mxCell id="XDL7qdiM2E-naXSdZjuc-95" value="&lt;div style=&quot;color: rgb(216, 222, 233); font-family: Consolas, &amp;quot;Courier New&amp;quot;, monospace; font-size: 14px; line-height: 19px; white-space: pre;&quot;&gt;&lt;span&gt;&lt;span style=&quot;color: rgb(193, 128, 138);&quot;&gt;this&lt;/span&gt;.&lt;span style=&quot;color: rgb(239, 176, 128);&quot;&gt;initSelfDb&lt;/span&gt;()&lt;/span&gt;&lt;/div&gt;" style="text;html=1;align=center;verticalAlign=middle;whiteSpace=wrap;rounded=0;" vertex="1" parent="XDL7qdiM2E-naXSdZjuc-92">
          <mxGeometry x="161" y="60" width="138" height="30" as="geometry" />
        </mxCell>
        <mxCell id="XDL7qdiM2E-naXSdZjuc-96" value="&lt;font style=&quot;color: rgb(255, 255, 255);&quot;&gt;初始化表的实例&lt;/font&gt;" style="text;html=1;align=center;verticalAlign=middle;whiteSpace=wrap;rounded=0;" vertex="1" parent="XDL7qdiM2E-naXSdZjuc-92">
          <mxGeometry x="126.5" y="102.5" width="206.99999999999997" height="30" as="geometry" />
        </mxCell>
        <mxCell id="XDL7qdiM2E-naXSdZjuc-97" value="" style="endArrow=none;dashed=1;html=1;rounded=0;entryX=0.486;entryY=0.99;entryDx=0;entryDy=0;entryPerimeter=0;exitX=0;exitY=0.5;exitDx=0;exitDy=0;" edge="1" parent="XDL7qdiM2E-naXSdZjuc-249" source="XDL7qdiM2E-naXSdZjuc-99" target="XDL7qdiM2E-naXSdZjuc-93">
          <mxGeometry width="50" height="50" relative="1" as="geometry">
            <mxPoint x="364" y="1270" as="sourcePoint" />
            <mxPoint x="374" y="1010" as="targetPoint" />
            <Array as="points">
              <mxPoint x="384" y="1270" />
            </Array>
          </mxGeometry>
        </mxCell>
        <mxCell id="XDL7qdiM2E-naXSdZjuc-98" value="" style="group" vertex="1" connectable="0" parent="XDL7qdiM2E-naXSdZjuc-249">
          <mxGeometry x="674" y="1050" width="1060" height="355" as="geometry" />
        </mxCell>
        <mxCell id="XDL7qdiM2E-naXSdZjuc-99" value="" style="rounded=1;whiteSpace=wrap;html=1;fillColor=#60a917;fontColor=#ffffff;strokeColor=#2D7600;opacity=70;" vertex="1" parent="XDL7qdiM2E-naXSdZjuc-98">
          <mxGeometry y="80" width="500" height="275" as="geometry" />
        </mxCell>
        <mxCell id="XDL7qdiM2E-naXSdZjuc-100" value="&lt;div style=&quot;font-family: Consolas, &amp;quot;Courier New&amp;quot;, monospace; font-size: 14px; line-height: 19px; white-space: pre;&quot;&gt;&lt;div style=&quot;line-height: 19px;&quot;&gt;&lt;div style=&quot;color: rgb(216, 222, 233); line-height: 19px;&quot;&gt;&lt;span&gt;&lt;span style=&quot;color: rgb(170, 155, 245);&quot;&gt;name&lt;/span&gt;&lt;span style=&quot;color: rgb(214, 214, 221);&quot;&gt;:&lt;/span&gt; &lt;span style=&quot;color: rgb(130, 210, 206);&quot;&gt;string&lt;/span&gt;&lt;/span&gt;&lt;/div&gt;&lt;/div&gt;&lt;/div&gt;" style="rounded=0;whiteSpace=wrap;html=1;fillColor=#60a917;fontColor=#ffffff;strokeColor=#2D7600;" vertex="1" parent="XDL7qdiM2E-naXSdZjuc-98">
          <mxGeometry x="40" y="115" width="110" height="50" as="geometry" />
        </mxCell>
        <mxCell id="XDL7qdiM2E-naXSdZjuc-101" value="com.kingsoft.ecis.account.sync\ecisaccountsync\src\sdk\cognac\msyql\Database.ts" style="text;html=1;align=center;verticalAlign=middle;resizable=0;points=[];autosize=1;strokeColor=none;fillColor=none;" vertex="1" parent="XDL7qdiM2E-naXSdZjuc-98">
          <mxGeometry x="45" y="40" width="470" height="30" as="geometry" />
        </mxCell>
        <mxCell id="XDL7qdiM2E-naXSdZjuc-102" value="&lt;div style=&quot;font-family: Consolas, &amp;quot;Courier New&amp;quot;, monospace; font-size: 14px; line-height: 19px; white-space: pre;&quot;&gt;&lt;div style=&quot;line-height: 19px;&quot;&gt;&lt;div style=&quot;color: rgb(216, 222, 233); line-height: 19px;&quot;&gt;&lt;span&gt;&lt;span style=&quot;color: rgb(170, 155, 245);&quot;&gt;retryCount&lt;/span&gt;&lt;span style=&quot;color: rgb(214, 214, 221);&quot;&gt;:&lt;/span&gt; &lt;span style=&quot;color: rgb(130, 210, 206);&quot;&gt;number&lt;/span&gt;&lt;/span&gt;&lt;/div&gt;&lt;/div&gt;&lt;/div&gt;" style="rounded=0;whiteSpace=wrap;html=1;fillColor=#60a917;fontColor=#ffffff;strokeColor=#2D7600;" vertex="1" parent="XDL7qdiM2E-naXSdZjuc-98">
          <mxGeometry x="160" y="115" width="140" height="50" as="geometry" />
        </mxCell>
        <mxCell id="XDL7qdiM2E-naXSdZjuc-103" value="&lt;div style=&quot;font-family: Consolas, &amp;quot;Courier New&amp;quot;, monospace; font-size: 14px; line-height: 19px; white-space-collapse: preserve;&quot;&gt;&lt;br&gt;&lt;/div&gt;" style="text;html=1;align=center;verticalAlign=middle;resizable=0;points=[];autosize=1;strokeColor=none;fillColor=none;" vertex="1" parent="XDL7qdiM2E-naXSdZjuc-98">
          <mxGeometry x="255" y="90" width="20" height="30" as="geometry" />
        </mxCell>
        <mxCell id="XDL7qdiM2E-naXSdZjuc-104" style="edgeStyle=orthogonalEdgeStyle;rounded=0;orthogonalLoop=1;jettySize=auto;html=1;exitX=1;exitY=0.5;exitDx=0;exitDy=0;entryX=0;entryY=0.5;entryDx=0;entryDy=0;" edge="1" parent="XDL7qdiM2E-naXSdZjuc-98" source="XDL7qdiM2E-naXSdZjuc-105" target="XDL7qdiM2E-naXSdZjuc-108">
          <mxGeometry relative="1" as="geometry">
            <mxPoint x="550" y="245" as="targetPoint" />
          </mxGeometry>
        </mxCell>
        <mxCell id="XDL7qdiM2E-naXSdZjuc-105" value="&lt;div style=&quot;font-family: Consolas, &amp;quot;Courier New&amp;quot;, monospace; font-size: 14px; line-height: 19px; white-space: pre;&quot;&gt;&lt;span&gt;初始化：&lt;span style=&quot;color: rgb(239, 176, 128); font-weight: bold;&quot;&gt;init&lt;/span&gt;&lt;span style=&quot;color: rgb(216, 222, 233);&quot;&gt;()&lt;/span&gt;&lt;/span&gt;&lt;/div&gt;" style="rounded=0;whiteSpace=wrap;html=1;fillColor=#60a917;fontColor=#ffffff;strokeColor=#2D7600;" vertex="1" parent="XDL7qdiM2E-naXSdZjuc-98">
          <mxGeometry x="40" y="190" width="430" height="50" as="geometry" />
        </mxCell>
        <mxCell id="XDL7qdiM2E-naXSdZjuc-106" value="&lt;div style=&quot;font-family: Consolas, &amp;quot;Courier New&amp;quot;, monospace; font-size: 14px; line-height: 19px; white-space: pre;&quot;&gt;&lt;div style=&quot;line-height: 19px;&quot;&gt;&lt;div style=&quot;color: rgb(216, 222, 233); line-height: 19px;&quot;&gt;&lt;span&gt;&lt;span style=&quot;color: rgb(170, 155, 245);&quot;&gt;retryCount&lt;/span&gt;&lt;span style=&quot;color: rgb(214, 214, 221);&quot;&gt;:&lt;/span&gt; &lt;span style=&quot;color: rgb(130, 210, 206);&quot;&gt;number&lt;/span&gt;&lt;/span&gt;&lt;/div&gt;&lt;/div&gt;&lt;/div&gt;" style="rounded=0;whiteSpace=wrap;html=1;fillColor=#60a917;fontColor=#ffffff;strokeColor=#2D7600;" vertex="1" parent="XDL7qdiM2E-naXSdZjuc-98">
          <mxGeometry x="310" y="115" width="156" height="50" as="geometry" />
        </mxCell>
        <mxCell id="XDL7qdiM2E-naXSdZjuc-107" value="" style="group;fillColor=default;" vertex="1" connectable="0" parent="XDL7qdiM2E-naXSdZjuc-98">
          <mxGeometry x="600" y="140" width="460" height="150" as="geometry" />
        </mxCell>
        <mxCell id="XDL7qdiM2E-naXSdZjuc-108" value="" style="rounded=0;whiteSpace=wrap;html=1;fillColor=#000000;fontColor=#ffffff;strokeColor=#314354;" vertex="1" parent="XDL7qdiM2E-naXSdZjuc-107">
          <mxGeometry width="460" height="150" as="geometry" />
        </mxCell>
        <mxCell id="XDL7qdiM2E-naXSdZjuc-109" value="&lt;div style=&quot;color: rgb(216, 222, 233); font-family: Consolas, &amp;quot;Courier New&amp;quot;, monospace; font-size: 14px; line-height: 19px; white-space: pre;&quot;&gt;&lt;div style=&quot;line-height: 19px;&quot;&gt;&lt;span&gt;&lt;span style=&quot;color: rgb(193, 128, 138);&quot;&gt;this&lt;/span&gt;.&lt;span style=&quot;color: rgb(170, 155, 245);&quot;&gt;pool&lt;/span&gt; &lt;span style=&quot;color: rgb(214, 214, 221);&quot;&gt;=&lt;/span&gt; &lt;span style=&quot;color: rgb(214, 214, 221);&quot;&gt;mysql&lt;/span&gt;.&lt;span style=&quot;color: rgb(235, 200, 141);&quot;&gt;createPool&lt;/span&gt;(&lt;span style=&quot;color: rgb(148, 193, 250);&quot;&gt;newConfig&lt;/span&gt;)&lt;/span&gt;&lt;/div&gt;&lt;/div&gt;" style="text;html=1;align=center;verticalAlign=middle;whiteSpace=wrap;rounded=0;" vertex="1" parent="XDL7qdiM2E-naXSdZjuc-107">
          <mxGeometry x="161" y="87.5" width="138" height="30" as="geometry" />
        </mxCell>
        <mxCell id="XDL7qdiM2E-naXSdZjuc-110" value="&lt;div style=&quot;font-family: Consolas, &amp;quot;Courier New&amp;quot;, monospace; font-size: 14px; line-height: 19px; white-space: pre;&quot;&gt;&lt;div style=&quot;line-height: 19px;&quot;&gt;&lt;span&gt;&lt;font style=&quot;color: rgb(255, 255, 255);&quot;&gt;&lt;span style=&quot;color: rgb(130, 210, 206);&quot;&gt;let&lt;/span&gt; &lt;span style=&quot;color: rgb(148, 193, 250);&quot;&gt;newConfig&lt;/span&gt;&lt;/font&gt;&lt;/span&gt;&lt;/div&gt;&lt;/div&gt;" style="text;html=1;align=center;verticalAlign=middle;whiteSpace=wrap;rounded=0;" vertex="1" parent="XDL7qdiM2E-naXSdZjuc-107">
          <mxGeometry x="161" y="22.5" width="138" height="30" as="geometry" />
        </mxCell>
        <mxCell id="XDL7qdiM2E-naXSdZjuc-111" value="&lt;div style=&quot;font-family: Consolas, &amp;quot;Courier New&amp;quot;, monospace; font-size: 14px; line-height: 19px; white-space: pre;&quot;&gt;&lt;span&gt;&lt;font style=&quot;color: rgb(255, 255, 255);&quot;&gt;update&lt;/font&gt;&lt;/span&gt;&lt;/div&gt;" style="rounded=0;whiteSpace=wrap;html=1;fillColor=#60a917;fontColor=#ffffff;strokeColor=#2D7600;" vertex="1" parent="XDL7qdiM2E-naXSdZjuc-98">
          <mxGeometry x="40" y="260" width="110" height="55" as="geometry" />
        </mxCell>
        <mxCell id="XDL7qdiM2E-naXSdZjuc-112" value="&lt;div style=&quot;font-family: Consolas, &amp;quot;Courier New&amp;quot;, monospace; font-size: 14px; line-height: 19px; white-space: pre;&quot;&gt;insert&lt;/div&gt;" style="rounded=0;whiteSpace=wrap;html=1;fillColor=#60a917;fontColor=#ffffff;strokeColor=#2D7600;" vertex="1" parent="XDL7qdiM2E-naXSdZjuc-98">
          <mxGeometry x="150" y="260" width="100" height="55" as="geometry" />
        </mxCell>
        <mxCell id="XDL7qdiM2E-naXSdZjuc-113" value="&lt;div style=&quot;font-family: Consolas, &amp;quot;Courier New&amp;quot;, monospace; font-size: 14px; line-height: 19px; white-space: pre;&quot;&gt;delete&lt;/div&gt;" style="rounded=0;whiteSpace=wrap;html=1;fillColor=#60a917;fontColor=#ffffff;strokeColor=#2D7600;" vertex="1" parent="XDL7qdiM2E-naXSdZjuc-98">
          <mxGeometry x="250" y="260" width="110" height="55" as="geometry" />
        </mxCell>
        <mxCell id="XDL7qdiM2E-naXSdZjuc-114" value="&lt;div style=&quot;font-family: Consolas, &amp;quot;Courier New&amp;quot;, monospace; font-size: 14px; line-height: 19px; white-space: pre;&quot;&gt;select&lt;/div&gt;" style="rounded=0;whiteSpace=wrap;html=1;fillColor=#60a917;fontColor=#ffffff;strokeColor=#2D7600;" vertex="1" parent="XDL7qdiM2E-naXSdZjuc-98">
          <mxGeometry x="360" y="260" width="110" height="55" as="geometry" />
        </mxCell>
        <mxCell id="XDL7qdiM2E-naXSdZjuc-115" value="&lt;div style=&quot;font-family: Consolas, &amp;quot;Courier New&amp;quot;, monospace; font-size: 14px; line-height: 19px; white-space-collapse: preserve;&quot;&gt;&lt;span style=&quot;font-style: italic;&quot;&gt;&lt;font style=&quot;color: rgb(255, 0, 0);&quot;&gt;数据库连接实现类&lt;/font&gt;&lt;/span&gt;&lt;/div&gt;" style="text;html=1;align=center;verticalAlign=middle;resizable=0;points=[];autosize=1;strokeColor=none;fillColor=none;" vertex="1" parent="XDL7qdiM2E-naXSdZjuc-98">
          <mxGeometry x="200" width="140" height="30" as="geometry" />
        </mxCell>
        <mxCell id="XDL7qdiM2E-naXSdZjuc-116" value="" style="group" vertex="1" connectable="0" parent="XDL7qdiM2E-naXSdZjuc-249">
          <mxGeometry x="2249" y="10" width="870" height="300" as="geometry" />
        </mxCell>
        <mxCell id="XDL7qdiM2E-naXSdZjuc-117" value="&lt;div style=&quot;font-family: Consolas, &amp;quot;Courier New&amp;quot;, monospace; font-size: 14px; line-height: 19px; white-space-collapse: preserve;&quot;&gt;&lt;span style=&quot;font-style: italic;&quot;&gt;&lt;font style=&quot;color: rgb(255, 0, 0);&quot;&gt;查询构建器的基类&lt;/font&gt;&lt;/span&gt;&lt;/div&gt;" style="text;html=1;align=center;verticalAlign=middle;resizable=0;points=[];autosize=1;strokeColor=none;fillColor=none;" vertex="1" parent="XDL7qdiM2E-naXSdZjuc-116">
          <mxGeometry x="130" width="140" height="30" as="geometry" />
        </mxCell>
        <mxCell id="XDL7qdiM2E-naXSdZjuc-118" value="" style="rounded=1;whiteSpace=wrap;html=1;fillColor=#60a917;fontColor=#ffffff;strokeColor=#2D7600;opacity=70;" vertex="1" parent="XDL7qdiM2E-naXSdZjuc-116">
          <mxGeometry y="90" width="410" height="210" as="geometry" />
        </mxCell>
        <mxCell id="XDL7qdiM2E-naXSdZjuc-119" value="&lt;div style=&quot;font-family: Consolas, &amp;quot;Courier New&amp;quot;, monospace; font-size: 14px; line-height: 19px; white-space: pre;&quot;&gt;&lt;div style=&quot;color: rgb(216, 222, 233); line-height: 19px;&quot;&gt;&lt;div style=&quot;line-height: 19px;&quot;&gt;&lt;span&gt;&lt;span style=&quot;color: rgb(170, 155, 245);&quot;&gt;sql&lt;/span&gt;&lt;span style=&quot;color: rgb(214, 214, 221);&quot;&gt;:&lt;/span&gt;&lt;span style=&quot;color: rgb(130, 210, 206);&quot;&gt;string&lt;/span&gt;&lt;span style=&quot;color: rgb(214, 214, 221);&quot;&gt;[]&lt;/span&gt;&lt;/span&gt;&lt;/div&gt;&lt;/div&gt;&lt;/div&gt;" style="rounded=0;whiteSpace=wrap;html=1;fillColor=#60a917;fontColor=#ffffff;strokeColor=#2D7600;" vertex="1" parent="XDL7qdiM2E-naXSdZjuc-116">
          <mxGeometry x="40" y="130" width="140" height="55" as="geometry" />
        </mxCell>
        <mxCell id="XDL7qdiM2E-naXSdZjuc-120" value="ecisaccountsync\src\sdk\cognac\orm\Table.ts" style="text;html=1;align=center;verticalAlign=middle;resizable=0;points=[];autosize=1;strokeColor=none;fillColor=none;" vertex="1" parent="XDL7qdiM2E-naXSdZjuc-116">
          <mxGeometry x="90" y="50" width="260" height="30" as="geometry" />
        </mxCell>
        <mxCell id="XDL7qdiM2E-naXSdZjuc-121" value="&lt;div style=&quot;font-family: Consolas, &amp;quot;Courier New&amp;quot;, monospace; font-size: 14px; line-height: 19px; white-space: pre;&quot;&gt;&lt;div style=&quot;color: rgb(216, 222, 233); line-height: 19px;&quot;&gt;&lt;div style=&quot;line-height: 19px;&quot;&gt;&lt;span&gt;&lt;span style=&quot;color: rgb(170, 155, 245);&quot;&gt;values&lt;/span&gt;&lt;span style=&quot;color: rgb(214, 214, 221);&quot;&gt;:&lt;/span&gt;&lt;span style=&quot;color: rgb(130, 210, 206);&quot;&gt;any&lt;/span&gt;&lt;span style=&quot;color: rgb(214, 214, 221);&quot;&gt;[]&lt;/span&gt;&lt;/span&gt;&lt;/div&gt;&lt;/div&gt;&lt;/div&gt;" style="rounded=0;whiteSpace=wrap;html=1;fillColor=#60a917;fontColor=#ffffff;strokeColor=#2D7600;" vertex="1" parent="XDL7qdiM2E-naXSdZjuc-116">
          <mxGeometry x="208" y="130" width="140" height="55" as="geometry" />
        </mxCell>
        <mxCell id="XDL7qdiM2E-naXSdZjuc-122" style="edgeStyle=orthogonalEdgeStyle;rounded=0;orthogonalLoop=1;jettySize=auto;html=1;exitX=1;exitY=0.5;exitDx=0;exitDy=0;entryX=0;entryY=0.5;entryDx=0;entryDy=0;" edge="1" parent="XDL7qdiM2E-naXSdZjuc-116" source="XDL7qdiM2E-naXSdZjuc-123" target="XDL7qdiM2E-naXSdZjuc-128">
          <mxGeometry relative="1" as="geometry">
            <mxPoint x="580" y="238" as="targetPoint" />
          </mxGeometry>
        </mxCell>
        <mxCell id="XDL7qdiM2E-naXSdZjuc-123" value="&lt;div style=&quot;font-family: Consolas, &amp;quot;Courier New&amp;quot;, monospace; font-size: 14px; line-height: 19px; white-space: pre;&quot;&gt;insert&lt;/div&gt;" style="rounded=0;whiteSpace=wrap;html=1;fillColor=#60a917;fontColor=#ffffff;strokeColor=#2D7600;" vertex="1" parent="XDL7qdiM2E-naXSdZjuc-116">
          <mxGeometry x="290" y="210" width="60" height="55" as="geometry" />
        </mxCell>
        <mxCell id="XDL7qdiM2E-naXSdZjuc-124" value="&lt;div style=&quot;font-family: Consolas, &amp;quot;Courier New&amp;quot;, monospace; font-size: 14px; line-height: 19px; white-space: pre;&quot;&gt;select&lt;/div&gt;" style="rounded=0;whiteSpace=wrap;html=1;fillColor=#60a917;fontColor=#ffffff;strokeColor=#2D7600;" vertex="1" parent="XDL7qdiM2E-naXSdZjuc-116">
          <mxGeometry x="210" y="210" width="60" height="55" as="geometry" />
        </mxCell>
        <mxCell id="XDL7qdiM2E-naXSdZjuc-125" value="&lt;div style=&quot;font-family: Consolas, &amp;quot;Courier New&amp;quot;, monospace; font-size: 14px; line-height: 19px; white-space: pre;&quot;&gt;update&lt;/div&gt;" style="rounded=0;whiteSpace=wrap;html=1;fillColor=#60a917;fontColor=#ffffff;strokeColor=#2D7600;" vertex="1" parent="XDL7qdiM2E-naXSdZjuc-116">
          <mxGeometry x="120" y="210" width="60" height="55" as="geometry" />
        </mxCell>
        <mxCell id="XDL7qdiM2E-naXSdZjuc-126" value="&lt;div style=&quot;font-family: Consolas, &amp;quot;Courier New&amp;quot;, monospace; font-size: 14px; line-height: 19px; white-space: pre;&quot;&gt;delete&lt;/div&gt;" style="rounded=0;whiteSpace=wrap;html=1;fillColor=#60a917;fontColor=#ffffff;strokeColor=#2D7600;" vertex="1" parent="XDL7qdiM2E-naXSdZjuc-116">
          <mxGeometry x="40" y="210" width="60" height="55" as="geometry" />
        </mxCell>
        <mxCell id="XDL7qdiM2E-naXSdZjuc-127" value="" style="group;fillColor=#000000;" vertex="1" connectable="0" parent="XDL7qdiM2E-naXSdZjuc-116">
          <mxGeometry x="600" y="196.25" width="270" height="82.5" as="geometry" />
        </mxCell>
        <mxCell id="XDL7qdiM2E-naXSdZjuc-128" value="" style="rounded=0;whiteSpace=wrap;html=1;fillColor=#000000;fontColor=#ffffff;strokeColor=#314354;" vertex="1" parent="XDL7qdiM2E-naXSdZjuc-127">
          <mxGeometry width="270" height="82.5" as="geometry" />
        </mxCell>
        <mxCell id="XDL7qdiM2E-naXSdZjuc-129" value="&lt;div style=&quot;color: rgb(216, 222, 233); font-family: Consolas, &amp;quot;Courier New&amp;quot;, monospace; font-size: 14px; line-height: 19px; white-space: pre;&quot;&gt;&lt;div style=&quot;line-height: 19px;&quot;&gt;&lt;div style=&quot;line-height: 19px;&quot;&gt;&lt;div style=&quot;line-height: 19px;&quot;&gt;&lt;div style=&quot;&quot;&gt;&lt;span&gt;&lt;span style=&quot;color: rgb(130, 210, 206);&quot;&gt;static&lt;/span&gt; &lt;span style=&quot;color: rgb(239, 176, 128); font-weight: bold;&quot;&gt;insert&lt;/span&gt;()&lt;span style=&quot;color: rgb(214, 214, 221);&quot;&gt;:&lt;/span&gt;&lt;span style=&quot;color: rgb(135, 195, 255);&quot;&gt;Insert&lt;/span&gt; {&lt;/span&gt;&lt;/div&gt;&lt;div style=&quot;&quot;&gt;&lt;span&gt;&amp;nbsp; &amp;nbsp; &lt;span style=&quot;color: #83d6c5;&quot;&gt;return&lt;/span&gt; &lt;span style=&quot;color: #83d6c5;&quot;&gt;new&lt;/span&gt; &lt;span style=&quot;color: #87c3ff;&quot;&gt;Insert&lt;/span&gt;()&lt;/span&gt;&lt;/div&gt;&lt;div style=&quot;&quot;&gt;&lt;span&gt;&amp;nbsp; }&lt;/span&gt;&lt;/div&gt;&lt;/div&gt;&lt;/div&gt;&lt;/div&gt;&lt;/div&gt;" style="text;html=1;align=center;verticalAlign=middle;whiteSpace=wrap;rounded=0;" vertex="1" parent="XDL7qdiM2E-naXSdZjuc-127">
          <mxGeometry x="94.50000000000001" y="27.499999999999993" width="81.00000000000001" height="16.5" as="geometry" />
        </mxCell>
        <mxCell id="XDL7qdiM2E-naXSdZjuc-130" value="&lt;div style=&quot;font-family: Consolas, &amp;quot;Courier New&amp;quot;, monospace; font-size: 14px; line-height: 19px; white-space-collapse: preserve;&quot;&gt;&lt;font color=&quot;#ffffff&quot;&gt;Query&lt;/font&gt;&lt;/div&gt;" style="text;html=1;align=center;verticalAlign=middle;resizable=0;points=[];autosize=1;strokeColor=none;fillColor=none;" vertex="1" parent="XDL7qdiM2E-naXSdZjuc-116">
          <mxGeometry x="170" y="90" width="60" height="30" as="geometry" />
        </mxCell>
        <mxCell id="XDL7qdiM2E-naXSdZjuc-131" value="" style="group" vertex="1" connectable="0" parent="XDL7qdiM2E-naXSdZjuc-249">
          <mxGeometry x="1659" y="370" width="400" height="430" as="geometry" />
        </mxCell>
        <mxCell id="XDL7qdiM2E-naXSdZjuc-132" value="" style="rounded=1;whiteSpace=wrap;html=1;fillColor=#60a917;fontColor=#ffffff;strokeColor=#2D7600;opacity=70;" vertex="1" parent="XDL7qdiM2E-naXSdZjuc-131">
          <mxGeometry y="80" width="400" height="350" as="geometry" />
        </mxCell>
        <mxCell id="XDL7qdiM2E-naXSdZjuc-133" value="&lt;div style=&quot;font-family: Consolas, &amp;quot;Courier New&amp;quot;, monospace; font-size: 14px; line-height: 19px; white-space: pre;&quot;&gt;&lt;div style=&quot;color: rgb(216, 222, 233); line-height: 19px;&quot;&gt;&lt;div style=&quot;line-height: 19px;&quot;&gt;&lt;span&gt;&lt;span style=&quot;color: rgb(170, 155, 245);&quot;&gt;table&lt;/span&gt;&lt;span style=&quot;color: rgb(214, 214, 221);&quot;&gt;:&lt;/span&gt; &lt;span style=&quot;color: rgb(135, 195, 255);&quot;&gt;Table&lt;/span&gt;&amp;lt;&lt;span style=&quot;color: rgb(239, 176, 128);&quot;&gt;TSchema&lt;/span&gt;&amp;gt;&lt;/span&gt;&lt;/div&gt;&lt;/div&gt;&lt;/div&gt;" style="rounded=0;whiteSpace=wrap;html=1;fillColor=#60a917;fontColor=#ffffff;strokeColor=#2D7600;" vertex="1" parent="XDL7qdiM2E-naXSdZjuc-131">
          <mxGeometry x="30" y="130" width="190" height="55" as="geometry" />
        </mxCell>
        <mxCell id="XDL7qdiM2E-naXSdZjuc-134" value="ecisaccountsync\src\sdk\cognac\orm\Table.ts" style="text;html=1;align=center;verticalAlign=middle;resizable=0;points=[];autosize=1;strokeColor=none;fillColor=none;" vertex="1" parent="XDL7qdiM2E-naXSdZjuc-131">
          <mxGeometry x="80" y="40" width="260" height="30" as="geometry" />
        </mxCell>
        <mxCell id="XDL7qdiM2E-naXSdZjuc-135" value="&lt;div style=&quot;font-family: Consolas, &amp;quot;Courier New&amp;quot;, monospace; font-size: 14px; line-height: 19px; white-space: pre;&quot;&gt;&lt;div style=&quot;color: rgb(216, 222, 233); line-height: 19px;&quot;&gt;&lt;div style=&quot;line-height: 19px;&quot;&gt;&lt;span&gt;&lt;span style=&quot;color: rgb(170, 155, 245);&quot;&gt;sql&lt;/span&gt;&lt;span style=&quot;color: rgb(214, 214, 221);&quot;&gt;:&lt;/span&gt; &lt;span style=&quot;color: rgb(135, 195, 255);&quot;&gt;Insert&lt;/span&gt;&lt;/span&gt;&lt;/div&gt;&lt;/div&gt;&lt;/div&gt;" style="rounded=0;whiteSpace=wrap;html=1;fillColor=#60a917;fontColor=#ffffff;strokeColor=#2D7600;" vertex="1" parent="XDL7qdiM2E-naXSdZjuc-131">
          <mxGeometry x="224" y="130" width="136" height="55" as="geometry" />
        </mxCell>
        <mxCell id="XDL7qdiM2E-naXSdZjuc-136" value="&lt;div style=&quot;font-family: Consolas, &amp;quot;Courier New&amp;quot;, monospace; font-size: 14px; line-height: 19px; white-space: pre;&quot;&gt;add&lt;/div&gt;" style="rounded=0;whiteSpace=wrap;html=1;fillColor=#60a917;fontColor=#ffffff;strokeColor=#2D7600;" vertex="1" parent="XDL7qdiM2E-naXSdZjuc-131">
          <mxGeometry x="30.5" y="265" width="329.5" height="55" as="geometry" />
        </mxCell>
        <mxCell id="XDL7qdiM2E-naXSdZjuc-137" value="&lt;div style=&quot;font-family: Consolas, &amp;quot;Courier New&amp;quot;, monospace; font-size: 14px; line-height: 19px; white-space-collapse: preserve;&quot;&gt;&lt;span&gt;&lt;font style=&quot;color: rgb(255, 255, 255);&quot;&gt;TableAdd&lt;/font&gt;&lt;/span&gt;&lt;/div&gt;" style="text;html=1;align=center;verticalAlign=middle;resizable=0;points=[];autosize=1;strokeColor=none;fillColor=none;" vertex="1" parent="XDL7qdiM2E-naXSdZjuc-131">
          <mxGeometry x="163" y="90" width="90" height="30" as="geometry" />
        </mxCell>
        <mxCell id="XDL7qdiM2E-naXSdZjuc-138" value="&lt;div style=&quot;font-family: Consolas, &amp;quot;Courier New&amp;quot;, monospace; font-size: 14px; line-height: 19px; white-space-collapse: preserve;&quot;&gt;&lt;span style=&quot;font-style: italic;&quot;&gt;&lt;font style=&quot;color: rgb(255, 0, 0);&quot;&gt;数据插入操作类&lt;/font&gt;&lt;/span&gt;&lt;/div&gt;" style="text;html=1;align=center;verticalAlign=middle;resizable=0;points=[];autosize=1;strokeColor=none;fillColor=none;" vertex="1" parent="XDL7qdiM2E-naXSdZjuc-131">
          <mxGeometry x="163" width="120" height="30" as="geometry" />
        </mxCell>
        <mxCell id="XDL7qdiM2E-naXSdZjuc-139" value="&lt;div style=&quot;font-family: Consolas, &amp;quot;Courier New&amp;quot;, monospace; font-size: 14px; line-height: 19px; white-space: pre;&quot;&gt;query&lt;/div&gt;" style="rounded=0;whiteSpace=wrap;html=1;fillColor=#60a917;fontColor=#ffffff;strokeColor=#2D7600;" vertex="1" parent="XDL7qdiM2E-naXSdZjuc-131">
          <mxGeometry x="31" y="335" width="329" height="55" as="geometry" />
        </mxCell>
        <mxCell id="XDL7qdiM2E-naXSdZjuc-140" value="&lt;div style=&quot;font-family: Consolas, &amp;quot;Courier New&amp;quot;, monospace; font-size: 14px; line-height: 19px; white-space: pre;&quot;&gt;constructor&lt;/div&gt;" style="rounded=0;whiteSpace=wrap;html=1;fillColor=#60a917;fontColor=#ffffff;strokeColor=#2D7600;" vertex="1" parent="XDL7qdiM2E-naXSdZjuc-131">
          <mxGeometry x="30" y="200" width="330" height="55" as="geometry" />
        </mxCell>
        <mxCell id="XDL7qdiM2E-naXSdZjuc-141" value="" style="group" vertex="1" connectable="0" parent="XDL7qdiM2E-naXSdZjuc-249">
          <mxGeometry x="1619" y="30" width="510" height="280" as="geometry" />
        </mxCell>
        <mxCell id="XDL7qdiM2E-naXSdZjuc-142" value="" style="rounded=1;whiteSpace=wrap;html=1;fillColor=#60a917;fontColor=#ffffff;strokeColor=#2D7600;opacity=70;" vertex="1" parent="XDL7qdiM2E-naXSdZjuc-141">
          <mxGeometry y="70" width="510" height="210" as="geometry" />
        </mxCell>
        <mxCell id="XDL7qdiM2E-naXSdZjuc-143" value="&lt;div style=&quot;font-family: Consolas, &amp;quot;Courier New&amp;quot;, monospace; font-size: 14px; line-height: 19px; white-space: pre;&quot;&gt;&lt;div style=&quot;color: rgb(216, 222, 233); line-height: 19px;&quot;&gt;&lt;span&gt;&lt;span style=&quot;color: rgb(170, 155, 245);&quot;&gt;db&lt;/span&gt;&lt;span style=&quot;color: rgb(214, 214, 221);&quot;&gt;:&lt;/span&gt; &lt;span style=&quot;color: rgb(239, 176, 128);&quot;&gt;IDatabase&lt;/span&gt;&lt;/span&gt;&lt;/div&gt;&lt;/div&gt;" style="rounded=0;whiteSpace=wrap;html=1;fillColor=#60a917;fontColor=#ffffff;strokeColor=#2D7600;" vertex="1" parent="XDL7qdiM2E-naXSdZjuc-141">
          <mxGeometry x="50" y="110" width="187" height="55" as="geometry" />
        </mxCell>
        <mxCell id="XDL7qdiM2E-naXSdZjuc-144" value="ecisaccountsync\src\sdk\cognac\orm\Table.ts" style="text;html=1;align=center;verticalAlign=middle;resizable=0;points=[];autosize=1;strokeColor=none;fillColor=none;" vertex="1" parent="XDL7qdiM2E-naXSdZjuc-141">
          <mxGeometry x="100" y="30" width="260" height="30" as="geometry" />
        </mxCell>
        <mxCell id="XDL7qdiM2E-naXSdZjuc-145" value="&lt;div style=&quot;font-family: Consolas, &amp;quot;Courier New&amp;quot;, monospace; font-size: 14px; line-height: 19px; white-space: pre;&quot;&gt;&lt;div style=&quot;color: rgb(216, 222, 233); line-height: 19px;&quot;&gt;&lt;span&gt;&lt;span style=&quot;color: rgb(170, 155, 245);&quot;&gt;name&lt;/span&gt;&lt;span style=&quot;color: rgb(214, 214, 221);&quot;&gt;:&lt;/span&gt; &lt;span style=&quot;color: rgb(130, 210, 206);&quot;&gt;string&lt;/span&gt;&lt;/span&gt;&lt;/div&gt;&lt;/div&gt;" style="rounded=0;whiteSpace=wrap;html=1;fillColor=#60a917;fontColor=#ffffff;strokeColor=#2D7600;" vertex="1" parent="XDL7qdiM2E-naXSdZjuc-141">
          <mxGeometry x="260" y="110" width="210" height="55" as="geometry" />
        </mxCell>
        <mxCell id="XDL7qdiM2E-naXSdZjuc-146" value="&lt;div style=&quot;font-family: Consolas, &amp;quot;Courier New&amp;quot;, monospace; font-size: 14px; line-height: 19px; white-space: pre;&quot;&gt;add&lt;/div&gt;" style="rounded=0;whiteSpace=wrap;html=1;fillColor=#60a917;fontColor=#ffffff;strokeColor=#2D7600;" vertex="1" parent="XDL7qdiM2E-naXSdZjuc-141">
          <mxGeometry x="50" y="190" width="60" height="55" as="geometry" />
        </mxCell>
        <mxCell id="XDL7qdiM2E-naXSdZjuc-147" value="&lt;div style=&quot;font-family: Consolas, &amp;quot;Courier New&amp;quot;, monospace; font-size: 14px; line-height: 19px; white-space: pre;&quot;&gt;select&lt;/div&gt;" style="rounded=0;whiteSpace=wrap;html=1;fillColor=#60a917;fontColor=#ffffff;strokeColor=#2D7600;" vertex="1" parent="XDL7qdiM2E-naXSdZjuc-141">
          <mxGeometry x="410" y="190" width="60" height="55" as="geometry" />
        </mxCell>
        <mxCell id="XDL7qdiM2E-naXSdZjuc-148" value="&lt;div style=&quot;font-family: Consolas, &amp;quot;Courier New&amp;quot;, monospace; font-size: 14px; line-height: 19px; white-space: pre;&quot;&gt;remove&lt;/div&gt;" style="rounded=0;whiteSpace=wrap;html=1;fillColor=#60a917;fontColor=#ffffff;strokeColor=#2D7600;" vertex="1" parent="XDL7qdiM2E-naXSdZjuc-141">
          <mxGeometry x="110" y="190" width="60" height="55" as="geometry" />
        </mxCell>
        <mxCell id="XDL7qdiM2E-naXSdZjuc-149" value="&lt;div style=&quot;font-family: Consolas, &amp;quot;Courier New&amp;quot;, monospace; font-size: 14px; line-height: 19px; white-space: pre;&quot;&gt;update&lt;/div&gt;" style="rounded=0;whiteSpace=wrap;html=1;fillColor=#60a917;fontColor=#ffffff;strokeColor=#2D7600;" vertex="1" parent="XDL7qdiM2E-naXSdZjuc-141">
          <mxGeometry x="170" y="190" width="60" height="55" as="geometry" />
        </mxCell>
        <mxCell id="XDL7qdiM2E-naXSdZjuc-150" value="&lt;div style=&quot;font-family: Consolas, &amp;quot;Courier New&amp;quot;, monospace; font-size: 14px; line-height: 19px; white-space: pre;&quot;&gt;get&lt;/div&gt;" style="rounded=0;whiteSpace=wrap;html=1;fillColor=#60a917;fontColor=#ffffff;strokeColor=#2D7600;" vertex="1" parent="XDL7qdiM2E-naXSdZjuc-141">
          <mxGeometry x="230" y="190" width="60" height="55" as="geometry" />
        </mxCell>
        <mxCell id="XDL7qdiM2E-naXSdZjuc-151" value="&lt;div style=&quot;font-family: Consolas, &amp;quot;Courier New&amp;quot;, monospace; font-size: 14px; line-height: 19px; white-space: pre;&quot;&gt;find&lt;/div&gt;" style="rounded=0;whiteSpace=wrap;html=1;fillColor=#60a917;fontColor=#ffffff;strokeColor=#2D7600;" vertex="1" parent="XDL7qdiM2E-naXSdZjuc-141">
          <mxGeometry x="290" y="190" width="60" height="55" as="geometry" />
        </mxCell>
        <mxCell id="XDL7qdiM2E-naXSdZjuc-152" value="&lt;div style=&quot;font-family: Consolas, &amp;quot;Courier New&amp;quot;, monospace; font-size: 14px; line-height: 19px; white-space: pre;&quot;&gt;delete&lt;/div&gt;" style="rounded=0;whiteSpace=wrap;html=1;fillColor=#60a917;fontColor=#ffffff;strokeColor=#2D7600;" vertex="1" parent="XDL7qdiM2E-naXSdZjuc-141">
          <mxGeometry x="350" y="190" width="60" height="55" as="geometry" />
        </mxCell>
        <mxCell id="XDL7qdiM2E-naXSdZjuc-153" value="&lt;div style=&quot;font-family: Consolas, &amp;quot;Courier New&amp;quot;, monospace; font-size: 14px; line-height: 19px; white-space-collapse: preserve;&quot;&gt;&lt;span style=&quot;font-style: italic;&quot;&gt;&lt;font style=&quot;color: rgb(255, 0, 0);&quot;&gt;&amp;nbsp;数据库表操作基类&lt;/font&gt;&lt;/span&gt;&lt;/div&gt;" style="text;html=1;align=center;verticalAlign=middle;resizable=0;points=[];autosize=1;strokeColor=none;fillColor=none;" vertex="1" parent="XDL7qdiM2E-naXSdZjuc-141">
          <mxGeometry x="163" width="140" height="30" as="geometry" />
        </mxCell>
        <mxCell id="XDL7qdiM2E-naXSdZjuc-154" value="&lt;div style=&quot;font-family: Consolas, &amp;quot;Courier New&amp;quot;, monospace; font-size: 14px; line-height: 19px; white-space-collapse: preserve;&quot;&gt;&lt;span&gt;&lt;font style=&quot;color: rgb(255, 255, 255);&quot;&gt;Table&lt;/font&gt;&lt;/span&gt;&lt;/div&gt;" style="text;html=1;align=center;verticalAlign=middle;resizable=0;points=[];autosize=1;strokeColor=none;fillColor=none;" vertex="1" parent="XDL7qdiM2E-naXSdZjuc-141">
          <mxGeometry x="215" y="70" width="60" height="30" as="geometry" />
        </mxCell>
        <mxCell id="XDL7qdiM2E-naXSdZjuc-155" value="" style="endArrow=none;dashed=1;html=1;dashPattern=1 3;strokeWidth=2;rounded=0;exitX=1;exitY=0.25;exitDx=0;exitDy=0;strokeColor=#FF0000;" edge="1" parent="XDL7qdiM2E-naXSdZjuc-249" source="XDL7qdiM2E-naXSdZjuc-157">
          <mxGeometry width="50" height="50" relative="1" as="geometry">
            <mxPoint x="769" y="100" as="sourcePoint" />
            <mxPoint x="1619" y="130" as="targetPoint" />
          </mxGeometry>
        </mxCell>
        <mxCell id="XDL7qdiM2E-naXSdZjuc-156" value="" style="group" vertex="1" connectable="0" parent="XDL7qdiM2E-naXSdZjuc-249">
          <mxGeometry x="189" width="500" height="295" as="geometry" />
        </mxCell>
        <mxCell id="XDL7qdiM2E-naXSdZjuc-157" value="" style="rounded=1;whiteSpace=wrap;html=1;fillColor=#60a917;fontColor=#ffffff;strokeColor=#2D7600;opacity=70;" vertex="1" parent="XDL7qdiM2E-naXSdZjuc-156">
          <mxGeometry y="80" width="500" height="215" as="geometry" />
        </mxCell>
        <mxCell id="XDL7qdiM2E-naXSdZjuc-158" value="ecisaccountsync\src\modules\db\tables\KSCIMConfig.ts" style="text;html=1;align=center;verticalAlign=middle;resizable=0;points=[];autosize=1;strokeColor=none;fillColor=none;" vertex="1" parent="XDL7qdiM2E-naXSdZjuc-156">
          <mxGeometry x="90" y="41" width="320" height="30" as="geometry" />
        </mxCell>
        <mxCell id="XDL7qdiM2E-naXSdZjuc-159" value="&lt;div style=&quot;font-family: Consolas, &amp;quot;Courier New&amp;quot;, monospace; font-size: 14px; line-height: 19px; white-space-collapse: preserve;&quot;&gt;&lt;br&gt;&lt;/div&gt;" style="text;html=1;align=center;verticalAlign=middle;resizable=0;points=[];autosize=1;strokeColor=none;fillColor=none;" vertex="1" parent="XDL7qdiM2E-naXSdZjuc-156">
          <mxGeometry x="255" y="30" width="20" height="30" as="geometry" />
        </mxCell>
        <mxCell id="XDL7qdiM2E-naXSdZjuc-160" value="&lt;div style=&quot;font-family: Consolas, &amp;quot;Courier New&amp;quot;, monospace; font-size: 14px; line-height: 19px; white-space: pre;&quot;&gt;&lt;span&gt;初始化：&lt;span style=&quot;color: rgb(239, 176, 128); font-weight: bold;&quot;&gt;init&lt;/span&gt;&lt;span style=&quot;color: rgb(216, 222, 233);&quot;&gt;()&lt;/span&gt;&lt;/span&gt;&lt;/div&gt;" style="rounded=0;whiteSpace=wrap;html=1;fillColor=#60a917;fontColor=#ffffff;strokeColor=#2D7600;" vertex="1" parent="XDL7qdiM2E-naXSdZjuc-156">
          <mxGeometry x="40" y="130" width="430" height="50" as="geometry" />
        </mxCell>
        <mxCell id="XDL7qdiM2E-naXSdZjuc-161" value="&lt;div style=&quot;font-family: Consolas, &amp;quot;Courier New&amp;quot;, monospace; font-size: 14px; line-height: 19px; white-space: pre;&quot;&gt;&lt;span&gt;&lt;font style=&quot;color: rgb(255, 255, 255);&quot;&gt;update&lt;/font&gt;&lt;/span&gt;&lt;/div&gt;" style="rounded=0;whiteSpace=wrap;html=1;fillColor=#60a917;fontColor=#ffffff;strokeColor=#2D7600;" vertex="1" parent="XDL7qdiM2E-naXSdZjuc-156">
          <mxGeometry x="40" y="200" width="110" height="55" as="geometry" />
        </mxCell>
        <mxCell id="XDL7qdiM2E-naXSdZjuc-162" value="&lt;div style=&quot;font-family: Consolas, &amp;quot;Courier New&amp;quot;, monospace; font-size: 14px; line-height: 19px; white-space: pre;&quot;&gt;insert&lt;/div&gt;" style="rounded=0;whiteSpace=wrap;html=1;fillColor=#60a917;fontColor=#ffffff;strokeColor=#2D7600;" vertex="1" parent="XDL7qdiM2E-naXSdZjuc-156">
          <mxGeometry x="150" y="200" width="100" height="55" as="geometry" />
        </mxCell>
        <mxCell id="XDL7qdiM2E-naXSdZjuc-163" value="&lt;div style=&quot;font-family: Consolas, &amp;quot;Courier New&amp;quot;, monospace; font-size: 14px; line-height: 19px; white-space: pre;&quot;&gt;delete&lt;/div&gt;" style="rounded=0;whiteSpace=wrap;html=1;fillColor=#60a917;fontColor=#ffffff;strokeColor=#2D7600;" vertex="1" parent="XDL7qdiM2E-naXSdZjuc-156">
          <mxGeometry x="250" y="200" width="110" height="55" as="geometry" />
        </mxCell>
        <mxCell id="XDL7qdiM2E-naXSdZjuc-164" value="&lt;div style=&quot;font-family: Consolas, &amp;quot;Courier New&amp;quot;, monospace; font-size: 14px; line-height: 19px; white-space: pre;&quot;&gt;select&lt;/div&gt;" style="rounded=0;whiteSpace=wrap;html=1;fillColor=#60a917;fontColor=#ffffff;strokeColor=#2D7600;" vertex="1" parent="XDL7qdiM2E-naXSdZjuc-156">
          <mxGeometry x="360" y="200" width="110" height="55" as="geometry" />
        </mxCell>
        <mxCell id="XDL7qdiM2E-naXSdZjuc-165" value="&lt;div style=&quot;font-family: Consolas, &amp;quot;Courier New&amp;quot;, monospace; font-size: 14px; line-height: 19px; white-space-collapse: preserve;&quot;&gt;&lt;span style=&quot;font-style: italic;&quot;&gt;&lt;font style=&quot;color: rgb(255, 0, 0);&quot;&gt;数据库表具体实现类&lt;/font&gt;&lt;/span&gt;&lt;/div&gt;" style="text;html=1;align=center;verticalAlign=middle;resizable=0;points=[];autosize=1;strokeColor=none;fillColor=none;" vertex="1" parent="XDL7qdiM2E-naXSdZjuc-156">
          <mxGeometry x="170" width="150" height="30" as="geometry" />
        </mxCell>
        <mxCell id="XDL7qdiM2E-naXSdZjuc-166" value="&lt;div style=&quot;font-family: Consolas, &amp;quot;Courier New&amp;quot;, monospace; font-size: 14px; line-height: 19px; white-space-collapse: preserve;&quot;&gt;&lt;span&gt;&lt;font style=&quot;color: rgb(255, 255, 255);&quot;&gt;KSCIMConfigTable&lt;/font&gt;&lt;/span&gt;&lt;/div&gt;" style="text;html=1;align=center;verticalAlign=middle;resizable=0;points=[];autosize=1;strokeColor=none;fillColor=none;" vertex="1" parent="XDL7qdiM2E-naXSdZjuc-156">
          <mxGeometry x="170" y="90" width="150" height="30" as="geometry" />
        </mxCell>
        <mxCell id="XDL7qdiM2E-naXSdZjuc-167" value="" style="edgeStyle=orthogonalEdgeStyle;rounded=0;orthogonalLoop=1;jettySize=auto;html=1;entryX=0;entryY=0.5;entryDx=0;entryDy=0;" edge="1" parent="XDL7qdiM2E-naXSdZjuc-249" source="XDL7qdiM2E-naXSdZjuc-96" target="XDL7qdiM2E-naXSdZjuc-160">
          <mxGeometry relative="1" as="geometry">
            <mxPoint x="39" y="160" as="targetPoint" />
            <Array as="points">
              <mxPoint y="970" />
              <mxPoint y="155" />
            </Array>
          </mxGeometry>
        </mxCell>
        <mxCell id="XDL7qdiM2E-naXSdZjuc-168" value="" style="endArrow=none;dashed=1;html=1;dashPattern=1 3;strokeWidth=2;rounded=0;entryX=0.48;entryY=0.992;entryDx=0;entryDy=0;entryPerimeter=0;exitX=0.5;exitY=0;exitDx=0;exitDy=0;strokeColor=#FF0000;" edge="1" parent="XDL7qdiM2E-naXSdZjuc-249" source="XDL7qdiM2E-naXSdZjuc-132" target="XDL7qdiM2E-naXSdZjuc-142">
          <mxGeometry width="50" height="50" relative="1" as="geometry">
            <mxPoint x="1839" y="450" as="sourcePoint" />
            <mxPoint x="1859" y="340" as="targetPoint" />
          </mxGeometry>
        </mxCell>
        <mxCell id="XDL7qdiM2E-naXSdZjuc-169" style="edgeStyle=orthogonalEdgeStyle;rounded=0;orthogonalLoop=1;jettySize=auto;html=1;exitX=1;exitY=0.5;exitDx=0;exitDy=0;entryX=0;entryY=0.5;entryDx=0;entryDy=0;" edge="1" parent="XDL7qdiM2E-naXSdZjuc-249" source="XDL7qdiM2E-naXSdZjuc-87" target="XDL7qdiM2E-naXSdZjuc-171">
          <mxGeometry relative="1" as="geometry">
            <mxPoint x="2849" y="720" as="targetPoint" />
            <mxPoint x="2524" y="658" as="sourcePoint" />
          </mxGeometry>
        </mxCell>
        <mxCell id="XDL7qdiM2E-naXSdZjuc-170" value="" style="group;fillColor=#000000;" vertex="1" connectable="0" parent="XDL7qdiM2E-naXSdZjuc-249">
          <mxGeometry x="2879" y="630" width="180" height="55" as="geometry" />
        </mxCell>
        <mxCell id="XDL7qdiM2E-naXSdZjuc-171" value="&lt;div style=&quot;color: rgb(216, 222, 233); font-family: Consolas, &amp;quot;Courier New&amp;quot;, monospace; font-size: 14px; line-height: 19px; white-space: pre;&quot;&gt;&lt;div style=&quot;line-height: 19px;&quot;&gt;&lt;span&gt;&lt;span style=&quot;color: rgb(214, 214, 221); font-style: italic;&quot;&gt;db&lt;/span&gt;.&lt;span style=&quot;color: rgb(239, 176, 128);&quot;&gt;insert&lt;/span&gt;(&lt;span style=&quot;color: rgb(193, 128, 138);&quot;&gt;this&lt;/span&gt;.&lt;span style=&quot;color: rgb(170, 155, 245);&quot;&gt;sql&lt;/span&gt;.&lt;span style=&quot;color: rgb(239, 176, 128);&quot;&gt;join&lt;/span&gt;(&lt;span style=&quot;color: rgb(227, 148, 220);&quot;&gt;&#39; &#39;&lt;/span&gt;), &lt;span style=&quot;color: rgb(193, 128, 138);&quot;&gt;this&lt;/span&gt;.&lt;span style=&quot;color: rgb(170, 155, 245);&quot;&gt;values&lt;/span&gt;)&lt;/span&gt;&lt;/div&gt;&lt;/div&gt;" style="rounded=0;whiteSpace=wrap;html=1;fillColor=#000000;fontColor=#ffffff;strokeColor=#314354;" vertex="1" parent="XDL7qdiM2E-naXSdZjuc-170">
          <mxGeometry x="-160" width="340" height="55" as="geometry" />
        </mxCell>
        <mxCell id="XDL7qdiM2E-naXSdZjuc-172" style="edgeStyle=orthogonalEdgeStyle;rounded=0;orthogonalLoop=1;jettySize=auto;html=1;exitX=0.5;exitY=1;exitDx=0;exitDy=0;entryX=0;entryY=0.5;entryDx=0;entryDy=0;" edge="1" parent="XDL7qdiM2E-naXSdZjuc-249" source="XDL7qdiM2E-naXSdZjuc-139" target="XDL7qdiM2E-naXSdZjuc-174">
          <mxGeometry relative="1" as="geometry">
            <mxPoint x="2169" y="935" as="targetPoint" />
            <mxPoint x="1844" y="873" as="sourcePoint" />
          </mxGeometry>
        </mxCell>
        <mxCell id="XDL7qdiM2E-naXSdZjuc-173" value="" style="group;fillColor=#000000;" vertex="1" connectable="0" parent="XDL7qdiM2E-naXSdZjuc-249">
          <mxGeometry x="2119" y="840" width="180" height="55" as="geometry" />
        </mxCell>
        <mxCell id="XDL7qdiM2E-naXSdZjuc-174" value="&lt;div style=&quot;color: rgb(216, 222, 233); font-family: Consolas, &amp;quot;Courier New&amp;quot;, monospace; font-size: 14px; line-height: 19px; white-space: pre;&quot;&gt;&lt;span&gt;&lt;span style=&quot;color: rgb(193, 128, 138);&quot;&gt;this&lt;/span&gt;.&lt;span style=&quot;color: rgb(170, 155, 245);&quot;&gt;sql&lt;/span&gt;.&lt;span style=&quot;color: rgb(239, 176, 128);&quot;&gt;exec&lt;/span&gt;(&lt;span style=&quot;color: rgb(193, 128, 138);&quot;&gt;this&lt;/span&gt;.&lt;span style=&quot;color: rgb(170, 155, 245);&quot;&gt;table&lt;/span&gt;.&lt;span style=&quot;color: rgb(170, 155, 245);&quot;&gt;db&lt;/span&gt;)&lt;/span&gt;&lt;/div&gt;" style="rounded=0;whiteSpace=wrap;html=1;fillColor=#000000;fontColor=#ffffff;strokeColor=#314354;" vertex="1" parent="XDL7qdiM2E-naXSdZjuc-173">
          <mxGeometry x="-70" width="250" height="55" as="geometry" />
        </mxCell>
        <mxCell id="XDL7qdiM2E-naXSdZjuc-175" value="" style="endArrow=none;dashed=1;html=1;rounded=0;exitX=0.5;exitY=0;exitDx=0;exitDy=0;entryX=0;entryY=0.5;entryDx=0;entryDy=0;" edge="1" parent="XDL7qdiM2E-naXSdZjuc-249" source="XDL7qdiM2E-naXSdZjuc-174" target="XDL7qdiM2E-naXSdZjuc-87">
          <mxGeometry width="50" height="50" relative="1" as="geometry">
            <mxPoint x="2189" y="710" as="sourcePoint" />
            <mxPoint x="2239" y="660" as="targetPoint" />
            <Array as="points">
              <mxPoint x="2174" y="658" />
            </Array>
          </mxGeometry>
        </mxCell>
        <mxCell id="XDL7qdiM2E-naXSdZjuc-176" value="" style="rounded=1;whiteSpace=wrap;html=1;fillColor=#60a917;fontColor=#ffffff;strokeColor=#2D7600;opacity=70;" vertex="1" parent="XDL7qdiM2E-naXSdZjuc-249">
          <mxGeometry x="169" y="560" width="440" height="210" as="geometry" />
        </mxCell>
        <mxCell id="XDL7qdiM2E-naXSdZjuc-177" value="&lt;div style=&quot;font-family: Consolas, &amp;quot;Courier New&amp;quot;, monospace; font-size: 14px; line-height: 19px; white-space: pre;&quot;&gt;&lt;div style=&quot;color: rgb(216, 222, 233); line-height: 19px;&quot;&gt;&lt;span&gt;&lt;span style=&quot;color: rgb(170, 155, 245);&quot;&gt;collectDb&lt;/span&gt;&lt;span style=&quot;color: rgb(214, 214, 221);&quot;&gt;:&lt;/span&gt; &lt;span style=&quot;color: rgb(135, 195, 255);&quot;&gt;Database&lt;/span&gt;&lt;/span&gt;&lt;/div&gt;&lt;/div&gt;" style="rounded=0;whiteSpace=wrap;html=1;fillColor=#60a917;fontColor=#ffffff;strokeColor=#2D7600;" vertex="1" parent="XDL7qdiM2E-naXSdZjuc-249">
          <mxGeometry x="224" y="610" width="150" height="55" as="geometry" />
        </mxCell>
        <mxCell id="XDL7qdiM2E-naXSdZjuc-178" value="com.kingsoft.ecis.account.sync\ecisaccountsync\src\modules\db\DbManager.ts" style="text;html=1;align=center;verticalAlign=middle;resizable=0;points=[];autosize=1;strokeColor=none;fillColor=none;" vertex="1" parent="XDL7qdiM2E-naXSdZjuc-249">
          <mxGeometry x="179" y="500" width="440" height="30" as="geometry" />
        </mxCell>
        <mxCell id="XDL7qdiM2E-naXSdZjuc-179" value="&lt;div style=&quot;font-family: Consolas, &amp;quot;Courier New&amp;quot;, monospace; font-size: 14px; line-height: 19px; white-space: pre;&quot;&gt;&lt;div style=&quot;color: rgb(216, 222, 233); line-height: 19px;&quot;&gt;&lt;span&gt;&lt;span style=&quot;color: rgb(170, 155, 245);&quot;&gt;selfDb&lt;/span&gt;&lt;span style=&quot;color: rgb(214, 214, 221);&quot;&gt;:&lt;/span&gt; &lt;span style=&quot;color: rgb(135, 195, 255);&quot;&gt;Database&lt;/span&gt;&lt;/span&gt;&lt;/div&gt;&lt;/div&gt;" style="rounded=0;whiteSpace=wrap;html=1;fillColor=#60a917;fontColor=#ffffff;strokeColor=#2D7600;" vertex="1" parent="XDL7qdiM2E-naXSdZjuc-249">
          <mxGeometry x="404" y="610" width="154" height="55" as="geometry" />
        </mxCell>
        <mxCell id="XDL7qdiM2E-naXSdZjuc-180" value="&lt;div style=&quot;font-family: Consolas, &amp;quot;Courier New&amp;quot;, monospace; font-size: 14px; line-height: 19px; white-space: pre;&quot;&gt;&lt;span&gt;初始化：&lt;span style=&quot;color: rgb(239, 176, 128); font-weight: bold;&quot;&gt;init&lt;/span&gt;&lt;span style=&quot;color: rgb(216, 222, 233);&quot;&gt;()&lt;/span&gt;&lt;/span&gt;&lt;/div&gt;" style="rounded=0;whiteSpace=wrap;html=1;fillColor=#60a917;fontColor=#ffffff;strokeColor=#2D7600;" vertex="1" parent="XDL7qdiM2E-naXSdZjuc-249">
          <mxGeometry x="224" y="680" width="330" height="55" as="geometry" />
        </mxCell>
        <mxCell id="XDL7qdiM2E-naXSdZjuc-181" value="&lt;div style=&quot;font-family: Consolas, &amp;quot;Courier New&amp;quot;, monospace; font-size: 14px; line-height: 19px; white-space-collapse: preserve;&quot;&gt;&lt;span style=&quot;font-style: italic;&quot;&gt;&lt;font style=&quot;color: rgb(255, 0, 0);&quot;&gt;数据库管理器类&lt;/font&gt;&lt;/span&gt;&lt;/div&gt;" style="text;html=1;align=center;verticalAlign=middle;resizable=0;points=[];autosize=1;strokeColor=none;fillColor=none;" vertex="1" parent="XDL7qdiM2E-naXSdZjuc-249">
          <mxGeometry x="254" y="460" width="120" height="30" as="geometry" />
        </mxCell>
        <mxCell id="XDL7qdiM2E-naXSdZjuc-182" value="&lt;div style=&quot;font-family: Consolas, &amp;quot;Courier New&amp;quot;, monospace; font-weight: normal; font-size: 14px; line-height: 19px; white-space: pre;&quot;&gt;&lt;div style=&quot;&quot;&gt;&lt;span&gt;&lt;font style=&quot;color: rgb(255, 255, 255);&quot;&gt;DbManager&lt;/font&gt;&lt;/span&gt;&lt;/div&gt;&lt;/div&gt;" style="text;whiteSpace=wrap;html=1;" vertex="1" parent="XDL7qdiM2E-naXSdZjuc-249">
          <mxGeometry x="354" y="570" width="100" height="40" as="geometry" />
        </mxCell>
        <mxCell id="XDL7qdiM2E-naXSdZjuc-183" value="" style="edgeStyle=orthogonalEdgeStyle;rounded=0;orthogonalLoop=1;jettySize=auto;html=1;" edge="1" parent="XDL7qdiM2E-naXSdZjuc-249" source="XDL7qdiM2E-naXSdZjuc-180" target="XDL7qdiM2E-naXSdZjuc-93">
          <mxGeometry relative="1" as="geometry" />
        </mxCell>
      </root>
    </mxGraphModel>
  </diagram>
</mxfile>
